<svg xmlns="http://www.w3.org/2000/svg" xmlns:xlink="http://www.w3.org/1999/xlink" viewBox="0 0 202.11 225.64"><defs><style>.cls-1{fill:none;}.cls-2{isolation:isolate;}.cls-3{clip-path:url(#clip-path);}.cls-10,.cls-11,.cls-12,.cls-13,.cls-4,.cls-5,.cls-6,.cls-7,.cls-8,.cls-9{fill-rule:evenodd;}.cls-4{fill:url(#Безымянный_градиент_325);}.cls-5{fill:url(#Безымянный_градиент_326);}.cls-6{fill:#a70047;}.cls-7{fill:#f2f0f5;mix-blend-mode:soft-light;}.cls-8{fill:url(#Безымянный_градиент_337);}.cls-9{fill:url(#Безымянный_градиент_72);}.cls-10{fill:#5440be;}.cls-11{fill:#9c75d8;}.cls-12{fill:#6654c5;}.cls-13{fill:#614881;mix-blend-mode:multiply;opacity:0.3;}</style><clipPath id="clip-path" transform="translate(-608.15 -124.16)"><rect class="cls-1" x="9.5" y="-16.24" width="1000" height="500"/></clipPath><radialGradient id="Безымянный_градиент_325" cx="664.66" cy="275.83" r="43.63" gradientUnits="userSpaceOnUse"><stop offset="0" stop-color="#ff224d"/><stop offset="0.01" stop-color="#fd214d"/><stop offset="0.24" stop-color="#e41353"/><stop offset="0.46" stop-color="#d10857"/><stop offset="0.7" stop-color="#c70259"/><stop offset="0.97" stop-color="#c3005a"/></radialGradient><linearGradient id="Безымянный_градиент_326" x1="662.67" y1="345.57" x2="662.67" y2="242.05" gradientUnits="userSpaceOnUse"><stop offset="0" stop-color="#ff427e"/><stop offset="1" stop-color="#ff5973"/></linearGradient><linearGradient id="Безымянный_градиент_337" x1="690.51" y1="253.08" x2="786.24" y2="157.35" gradientUnits="userSpaceOnUse"><stop offset="0.03" stop-color="#9042ff"/><stop offset="1" stop-color="#6e7cff"/></linearGradient><linearGradient id="Безымянный_градиент_72" x1="687.85" y1="245.75" x2="788.92" y2="144.68" gradientUnits="userSpaceOnUse"><stop offset="0.03" stop-color="#bb86ff"/><stop offset="1" stop-color="#7c9fff"/></linearGradient></defs><g class="cls-2"><g id="objects"><g class="cls-3"><path class="cls-4" d="M703.32,280.8l-4-6.9-2.63-15.57-15.24-8.8-14.8,5.5h-8l-14.8-5.5-15.24,8.8L626,273.9l-4,6.9-12.17,10.06v17.61L622,318.53l4,6.9L628.65,341l15.24,8.8,14.8-5.5h8l14.8,5.5L696.7,341l2.63-15.57,4-6.9,12.17-10.06V290.86Zm-40.65,46.12a27.26,27.26,0,1,1,27.26-27.26A27.25,27.25,0,0,1,662.67,326.92Z" transform="translate(-608.15 -124.16)"/><path class="cls-5" d="M704.63,274.34l-4.11-7.13-2.72-16.07-15.73-9.09-15.28,5.69h-8.23l-15.28-5.69-15.74,9.09-2.71,16.07-4.11,7.13-12.57,10.39V302.9l12.57,10.39,4.11,7.12,2.71,16.08,15.74,9.08,15.28-5.68h8.23l15.28,5.68,15.73-9.08,2.72-16.08,4.11-7.12L717.2,302.9V284.73Zm-42,47.61a28.14,28.14,0,1,1,28.14-28.14A28.13,28.13,0,0,1,662.67,322Z" transform="translate(-608.15 -124.16)"/><polygon class="cls-6" points="1.71 184.31 0 178.74 12.56 189.13 13.88 194.37 1.71 184.31"/><polygon class="cls-6" points="35.74 225.64 35.13 221.41 50.41 215.73 50.54 220.13 35.74 225.64"/><polygon class="cls-6" points="107.33 184.31 109.05 178.74 96.48 189.13 95.17 194.37 107.33 184.31"/><polygon class="cls-6" points="88.55 216.84 89.65 212.33 73.91 221.41 73.31 225.64 88.55 216.84"/><path class="cls-7" d="M658.56,339.89s-11.71,2.88-15.28,3.26-15.74-6.66-15.74-6.66l15.74,9.08Z" transform="translate(-608.15 -124.16)"/><path class="cls-7" d="M666.79,339.89l15.28,5.68,15.73-9.08s-12.24,6.55-15.5,7S666.79,339.89,666.79,339.89Z" transform="translate(-608.15 -124.16)"/><path class="cls-7" d="M717.2,302.9V284.73s-.89,15.13-2.21,17.52-10.36,11-10.36,11Z" transform="translate(-608.15 -124.16)"/><path class="cls-7" d="M620.72,313.29,608.15,302.9V284.73s.89,13.3,2.65,17.55S620.72,313.29,620.72,313.29Z" transform="translate(-608.15 -124.16)"/><path class="cls-8" d="M797.78,196.18l8.68-6.34-8.68-21-10.62,1.65-13.33-13.33,1.66-10.62-21-8.68-6.34,8.68H729.34L723,137.91l-21,8.68,1.65,10.62-13.33,13.33-12-1.87L670,189l9.79,7.15V215l-8.68,6.34,8.69,21,10.61-1.66L703.7,254l-1.65,10.62,21,8.68,6.34-8.68h18.85l6.34,8.68,21-8.68L773.83,254l13.33-13.33,10.62,1.66,8.68-21L797.78,215ZM738.21,244a38.41,38.41,0,1,1,38.41-38.4A38.41,38.41,0,0,1,738.21,244Z" transform="translate(-608.15 -124.16)"/><path class="cls-9" d="M801.1,185.68l9.16-6.69-9.16-22.13-11.21,1.75-14.07-14.07,1.75-11.21-22.13-9.17-6.69,9.16h-19.9l-6.69-9.16L700,133.33l1.75,11.21-14.07,14.07-12.65-2-8.9,21.49,10.33,7.55v19.9l-9.16,6.69,9.17,22.12,11.21-1.74,14.07,14.07L700,257.93l22.13,9.16,6.69-9.16h19.9l6.69,9.16,22.13-9.16-1.75-11.21,14.07-14.07,11.21,1.74,9.16-22.12-9.16-6.69Zm-62.89,50.5a40.55,40.55,0,1,1,40.55-40.55A40.56,40.56,0,0,1,738.21,236.18Z" transform="translate(-608.15 -124.16)"/><polygon class="cls-10" points="198.31 65.68 202.11 54.82 192.95 61.52 192.95 69.59 198.31 65.68"/><polygon class="cls-11" points="169.41 133.77 167.34 140.46 146.38 149.14 147.29 142.93 169.41 133.77"/><polygon class="cls-11" points="114 142.93 114.85 149.14 93.9 140.46 91.88 133.77 114 142.93"/><polygon class="cls-10" points="140.04 140.46 140.6 133.77 147.29 142.93 146.38 149.14 140.04 140.46"/><polygon class="cls-10" points="82.22 116.51 79.55 108.49 68.34 110.23 71.6 118.17 82.22 116.51"/><polygon class="cls-10" points="68.34 69.64 68.34 61.52 58 53.97 61.81 64.87 68.34 69.64"/><polygon class="cls-12" points="179.01 116.51 181.74 108.49 192.95 110.23 189.63 118.17 179.01 116.51"/><path class="cls-13" d="M765,178.13l3.18-9.77s7.78,7.49,10.31,23l-2.74,6.3A35.73,35.73,0,0,0,765,178.13Z" transform="translate(-608.15 -124.16)"/><path class="cls-13" d="M707.87,182.05l-2.1-10.76S692.53,188,700,209.12C697.6,190.69,707.87,182.05,707.87,182.05Z" transform="translate(-608.15 -124.16)"/><path class="cls-7" d="M748.75,257.93s5.07,6.51,7.86,6.41,21-6.41,21-6.41l-22.13,9.16Z" transform="translate(-608.15 -124.16)"/><path class="cls-7" d="M728.85,257.93l-6.69,9.16L700,257.93s17.78,6.64,21.12,6.31S728.85,257.93,728.85,257.93Z" transform="translate(-608.15 -124.16)"/><path class="cls-7" d="M667.33,212.27l9.17,22.12,11.21-1.74s-7.88,1.36-10.19,0S667.33,212.27,667.33,212.27Z" transform="translate(-608.15 -124.16)"/><path class="cls-7" d="M789.89,232.65l11.21,1.74,9.16-22.12s-7,19.28-10.18,20.38S789.89,232.65,789.89,232.65Z" transform="translate(-608.15 -124.16)"/></g></g></g></svg>