<svg xmlns="http://www.w3.org/2000/svg" xmlns:xlink="http://www.w3.org/1999/xlink" viewBox="0 0 400.29 65.91"><defs><style>.cls-1{isolation:isolate;}.cls-10,.cls-2,.cls-3,.cls-4,.cls-5,.cls-6,.cls-7,.cls-8,.cls-9{fill-rule:evenodd;}.cls-10,.cls-2,.cls-7,.cls-8,.cls-9{mix-blend-mode:multiply;}.cls-2{opacity:0.94;fill:url(#Безымянный_градиент_608);}.cls-3{fill:url(#Безымянный_градиент_184);}.cls-4{fill:url(#Безымянный_градиент_715);}.cls-5{fill:url(#Безымянный_градиент_178);}.cls-6{fill:url(#Безымянный_градиент_180);}.cls-7{opacity:0.8;fill:url(#Безымянный_градиент_187);}.cls-8,.cls-9{fill:#926081;}.cls-8{opacity:0.2;}.cls-9{opacity:0.5;}.cls-10{fill:#614881;opacity:0.3;}</style><radialGradient id="Безымянный_градиент_608" cx="895.46" cy="365.32" r="92.72" gradientTransform="translate(-733.92 541.55) scale(1.92 0.14)" gradientUnits="userSpaceOnUse"><stop offset="0" stop-color="#74409c"/><stop offset="0.11" stop-color="#8a5fac"/><stop offset="0.32" stop-color="#b497c9"/><stop offset="0.52" stop-color="#d4c4e1"/><stop offset="0.69" stop-color="#ece4f1"/><stop offset="0.84" stop-color="#faf8fb"/><stop offset="0.94" stop-color="#fff"/></radialGradient><linearGradient id="Безымянный_градиент_184" x1="920.79" y1="568.15" x2="920.79" y2="541.77" gradientUnits="userSpaceOnUse"><stop offset="0.03" stop-color="#930045"/><stop offset="1" stop-color="#6b004d"/></linearGradient><linearGradient id="Безымянный_градиент_715" x1="759.58" y1="564.08" x2="1096.32" y2="564.08" gradientUnits="userSpaceOnUse"><stop offset="0" stop-color="#ff4ab1"/><stop offset="0.47" stop-color="#e21253"/><stop offset="0.97" stop-color="#c3005a"/></linearGradient><linearGradient id="Безымянный_градиент_178" x1="881.67" y1="592.6" x2="881.67" y2="553.24" gradientUnits="userSpaceOnUse"><stop offset="0.03" stop-color="#930045"/><stop offset="1" stop-color="#9c004d"/></linearGradient><linearGradient id="Безымянный_градиент_180" x1="1047.82" y1="592.6" x2="1047.82" y2="552" gradientUnits="userSpaceOnUse"><stop offset="0.03" stop-color="#b60045"/><stop offset="1" stop-color="#9c004d"/></linearGradient><linearGradient id="Безымянный_градиент_187" x1="912.27" y1="553.43" x2="1038.57" y2="553.43" gradientUnits="userSpaceOnUse"><stop offset="0.01" stop-color="#a22f83"/><stop offset="0.94" stop-color="#fff"/></linearGradient></defs><g class="cls-1"><g id="Layer_1" data-name="Layer 1"><path class="cls-2" d="M1159.87,596.4c0,7.43-60.95,10.12-162.23,10.12s-183.4-6-183.4-13.46,82.11-13.46,183.4-13.46S1159.87,589,1159.87,596.4Z" transform="translate(-759.58 -540.6)"/><path class="cls-3" d="M835.24,562.91c36.94-5.18,52.16,7,86.54,5s85.86-26.16,85.86-26.16-59,8.64-100.48,12.26c-37.55,3.27-58.49,2.09-67.64,3.23S835.24,562.91,835.24,562.91Z" transform="translate(-759.58 -540.6)"/><path class="cls-4" d="M862.43,550.41a53.64,53.64,0,0,1,11.74.38c12.17,2,37.22,5,100.22-4.95,92.66-14.67,121.93,6.16,121.93,6.16s-45.88,28.79-92.55,35.56c0,0-24.83-33.34-91.69-32.33s-152.5,19.3-152.5,19.3S800.56,552,862.43,550.41Z" transform="translate(-759.58 -540.6)"/><path class="cls-5" d="M1003.77,587.56l-4.46,5s-30.12-44.51-118.24-35.24S760.8,583.17,760.8,583.17l-1.22-8.64s87.74-23.81,156-21.08C982.26,556.12,1003.77,587.56,1003.77,587.56Z" transform="translate(-759.58 -540.6)"/><path class="cls-6" d="M999.31,592.6s59-8.67,97-37.11V552s-42.69,27.27-92.55,35.56Z" transform="translate(-759.58 -540.6)"/><path class="cls-7" d="M912.27,553.12c20.43,0,53.37-1.76,85.94,8.71s48-8.57,36.63-16.76-65.89,2.1-82.27,4.19S912.27,553.12,912.27,553.12Z" transform="translate(-759.58 -540.6)"/><path class="cls-8" d="M1003.77,587.56l-3.09,3.5s8.94-2.82,24.28-7.26,40.36-15.53,40.36-15.53S1034.73,580.41,1003.77,587.56Z" transform="translate(-759.58 -540.6)"/><path class="cls-9" d="M999.31,592.6l4.46-5a44.43,44.43,0,0,0-8.69-8.78s4,5,4.23,7.43S999.31,592.6,999.31,592.6Z" transform="translate(-759.58 -540.6)"/><path class="cls-10" d="M874.12,563.36c-4.12-2.8,14.89-6.73,38.15-6.1s30.46,7.45,30.46,7.45l8.7-2.17s-19.56-6.82-50-6.43a318.82,318.82,0,0,0-55.62,5.73,109.87,109.87,0,0,1,17.6.22C871.51,563,874.12,563.36,874.12,563.36Z" transform="translate(-759.58 -540.6)"/></g></g></svg>