<svg xmlns="http://www.w3.org/2000/svg" xmlns:xlink="http://www.w3.org/1999/xlink" viewBox="0 0 2308.42 1335.48"><defs><style>.cls-1{mask:url(#mask);}.cls-10,.cls-19,.cls-2,.cls-21,.cls-25,.cls-26,.cls-28,.cls-31,.cls-4,.cls-40,.cls-44,.cls-45,.cls-46,.cls-51,.cls-57,.cls-58,.cls-6,.cls-8{mix-blend-mode:multiply;}.cls-2{fill:url(#linear-gradient);}.cls-3{mask:url(#mask-2);}.cls-4{fill:url(#linear-gradient-2);}.cls-5{mask:url(#mask-3);}.cls-6{fill:url(#linear-gradient-3);}.cls-7{mask:url(#mask-4);}.cls-8{fill:url(#linear-gradient-4);}.cls-9{isolation:isolate;}.cls-10{fill:#6d6e71;}.cls-11{fill:#e5e5e5;}.cls-12{fill:#cbcbcb;}.cls-13{fill:#f1f1f1;}.cls-14,.cls-23,.cls-50,.cls-56{fill:#fff;}.cls-15{fill:#27aae1;}.cls-16,.cls-57{fill:#fbb09e;}.cls-17,.cls-19{fill:#d1d3d4;}.cls-18{fill:#202b6c;}.cls-20{fill:#161d48;}.cls-21{fill:#a7a9ac;}.cls-22{fill:#ec1c24;}.cls-23{opacity:0.5;}.cls-24{mask:url(#mask-5);}.cls-25{fill:url(#linear-gradient-5);}.cls-26,.cls-35{fill:gray;}.cls-27{mask:url(#mask-6);}.cls-28{fill:url(#linear-gradient-6);}.cls-29{fill:#333;}.cls-30{fill:#999;}.cls-31,.cls-32{fill:#b3b3b3;}.cls-33,.cls-45{fill:#666;}.cls-34,.cls-58{fill:#e6e7e8;}.cls-36{fill:#4d4d4d;}.cls-37,.cls-46{fill:#ccc;}.cls-38,.cls-40{fill:#e6e6e6;}.cls-39{fill:red;}.cls-41{mask:url(#mask-7);}.cls-42{fill:url(#linear-gradient-7);}.cls-43{mask:url(#mask-8);}.cls-44{fill:url(#linear-gradient-8);}.cls-47{fill:url(#linear-gradient-9);}.cls-48{fill:url(#linear-gradient-10);}.cls-49{fill:#00a99d;}.cls-50{opacity:0.3;}.cls-51{fill:#bbbdbf;}.cls-52{fill:#2b3990;}.cls-53{fill:#c3996c;}.cls-54{fill:#603913;}.cls-55{fill:#c61d24;}.cls-56{opacity:0.2;}.cls-59{fill:#f1f2f2;}.cls-60{fill:#fdd0c5;}.cls-61{fill:#3c2415;}.cls-62{fill:#635044;}.cls-63{fill:#fbcce8;}.cls-64{fill:#5b1322;}.cls-65{filter:url(#luminosity-noclip-8);}.cls-66{filter:url(#luminosity-noclip-7);}.cls-67{filter:url(#luminosity-noclip-6);}.cls-68{filter:url(#luminosity-noclip-5);}.cls-69{filter:url(#luminosity-noclip-4);}.cls-70{filter:url(#luminosity-noclip-3);}.cls-71{filter:url(#luminosity-noclip-2);}.cls-72{filter:url(#luminosity-noclip);}</style><filter id="luminosity-noclip" x="1124.62" y="-9192" width="304.57" height="32766" filterUnits="userSpaceOnUse" color-interpolation-filters="sRGB"><feFlood flood-color="#fff" result="bg"/><feBlend in="SourceGraphic" in2="bg"/></filter><mask id="mask" x="1124.62" y="-9192" width="304.57" height="32766" maskUnits="userSpaceOnUse"><g class="cls-72"/></mask><linearGradient id="linear-gradient" x1="853.35" y1="3244.35" x2="853.35" y2="2899.02" gradientTransform="matrix(0.37, 0.93, 0.93, -0.37, -1908.13, 1324.25)" gradientUnits="userSpaceOnUse"><stop offset="0"/><stop offset="0.04" stop-color="#181818"/><stop offset="0.15" stop-color="#4e4e4e"/><stop offset="0.26" stop-color="#7d7d7d"/><stop offset="0.37" stop-color="#a5a5a5"/><stop offset="0.49" stop-color="#c6c6c6"/><stop offset="0.6" stop-color="#dfdfdf"/><stop offset="0.72" stop-color="#f1f1f1"/><stop offset="0.85" stop-color="#fcfcfc"/><stop offset="1" stop-color="#fff"/></linearGradient><filter id="luminosity-noclip-2" x="1220.17" y="-9192" width="371.34" height="32766" filterUnits="userSpaceOnUse" color-interpolation-filters="sRGB"><feFlood flood-color="#fff" result="bg"/><feBlend in="SourceGraphic" in2="bg"/></filter><mask id="mask-2" x="1220.17" y="-9192" width="371.34" height="32766" maskUnits="userSpaceOnUse"><g class="cls-71"/></mask><linearGradient id="linear-gradient-2" x1="-295.03" y1="3244.15" x2="-295.03" y2="2898.82" gradientTransform="translate(-1557.71 2201.95) rotate(-111.75)" xlink:href="#linear-gradient"/><filter id="luminosity-noclip-3" x="447.32" y="-9192" width="918.61" height="32766" filterUnits="userSpaceOnUse" color-interpolation-filters="sRGB"><feFlood flood-color="#fff" result="bg"/><feBlend in="SourceGraphic" in2="bg"/></filter><mask id="mask-3" x="447.32" y="-9192" width="918.61" height="32766" maskUnits="userSpaceOnUse"><g class="cls-70"/></mask><linearGradient id="linear-gradient-3" x1="981.9" y1="3126.31" x2="981.9" y2="2118.36" gradientTransform="matrix(0.37, 0.93, 0.93, -0.37, -1908.13, 1324.25)" gradientUnits="userSpaceOnUse"><stop offset="0"/><stop offset="0.11" stop-color="#050505"/><stop offset="0.23" stop-color="#121212"/><stop offset="0.36" stop-color="#292929"/><stop offset="0.5" stop-color="#494949"/><stop offset="0.64" stop-color="#727272"/><stop offset="0.78" stop-color="#a5a5a5"/><stop offset="0.93" stop-color="#dfdfdf"/><stop offset="1" stop-color="#fff"/></linearGradient><filter id="luminosity-noclip-4" x="1022.14" y="-9192" width="390.31" height="32766" filterUnits="userSpaceOnUse" color-interpolation-filters="sRGB"><feFlood flood-color="#fff" result="bg"/><feBlend in="SourceGraphic" in2="bg"/></filter><mask id="mask-4" x="1022.14" y="-9192" width="390.31" height="32766" maskUnits="userSpaceOnUse"><g class="cls-69"/></mask><linearGradient id="linear-gradient-4" x1="1050.6" y1="2931.01" x2="1192.63" y2="2931.01" gradientTransform="matrix(0.37, 0.93, 0.93, -0.37, -1908.13, 1324.25)" gradientUnits="userSpaceOnUse"><stop offset="0" stop-color="#fff"/><stop offset="0.1" stop-color="#fafafa"/><stop offset="0.22" stop-color="#eaeaea"/><stop offset="0.36" stop-color="#d1d1d1"/><stop offset="0.51" stop-color="#aeaeae"/><stop offset="0.66" stop-color="gray"/><stop offset="0.82" stop-color="#484848"/><stop offset="0.98" stop-color="#080808"/><stop offset="1"/></linearGradient><filter id="luminosity-noclip-5" x="1124.62" y="847.55" width="304.57" height="254.79" filterUnits="userSpaceOnUse" color-interpolation-filters="sRGB"><feFlood flood-color="#fff" result="bg"/><feBlend in="SourceGraphic" in2="bg"/></filter><mask id="mask-5" x="701" y="416.93" width="304.57" height="254.79" maskUnits="userSpaceOnUse"><g class="cls-68"><g transform="translate(-423.62 -430.63)"><g class="cls-1"><path class="cls-2" d="M1124.62,1102.34c37.58-101.42,159.16-210.5,231.18-239.24l39-15.55,29.84,74.79c16.48,41.31-13.47,86.34-57.94,87.1l-43.4.74a202.23,202.23,0,0,0-82.06,19C1192.21,1052.06,1153.81,1076.66,1124.62,1102.34Z"/></g></g></g></mask><linearGradient id="linear-gradient-5" x1="853.35" y1="3244.35" x2="853.35" y2="2899.02" gradientTransform="matrix(0.37, 0.93, 0.93, -0.37, -1908.13, 1324.25)" gradientUnits="userSpaceOnUse"><stop offset="0" stop-color="#fff"/><stop offset="0.04" stop-color="#e7e7e7"/><stop offset="0.15" stop-color="#b1b1b1"/><stop offset="0.26" stop-color="#828282"/><stop offset="0.37" stop-color="#5a5a5a"/><stop offset="0.49" stop-color="#393939"/><stop offset="0.6" stop-color="#202020"/><stop offset="0.72" stop-color="#0e0e0e"/><stop offset="0.85" stop-color="#030303"/><stop offset="1"/></linearGradient><filter id="luminosity-noclip-6" x="1220.17" y="1225.82" width="371.34" height="151.95" filterUnits="userSpaceOnUse" color-interpolation-filters="sRGB"><feFlood flood-color="#fff" result="bg"/><feBlend in="SourceGraphic" in2="bg"/></filter><mask id="mask-6" x="796.56" y="795.19" width="371.34" height="151.95" maskUnits="userSpaceOnUse"><g class="cls-67"><g transform="translate(-423.62 -430.63)"><g class="cls-3"><path class="cls-4" d="M1220.17,1341.81c97.08,47.69,260.36,43.1,332.38,14.36l39-15.54-29.85-74.79c-16.48-41.31-69.2-53.35-102-23.29l-32,29.34a202,202,0,0,1-72.59,42.72C1303.81,1331.74,1259,1340.33,1220.17,1341.81Z"/></g></g></g></mask><linearGradient id="linear-gradient-6" x1="-295.03" y1="3244.15" x2="-295.03" y2="2898.82" gradientTransform="translate(-1557.71 2201.95) rotate(-111.75)" xlink:href="#linear-gradient-5"/><filter id="luminosity-noclip-7" x="447.32" y="1074.21" width="918.61" height="437.84" filterUnits="userSpaceOnUse" color-interpolation-filters="sRGB"><feFlood flood-color="#fff" result="bg"/><feBlend in="SourceGraphic" in2="bg"/></filter><mask id="mask-7" x="23.71" y="643.58" width="918.61" height="437.84" maskUnits="userSpaceOnUse"><g class="cls-66"><g transform="translate(-423.62 -430.63)"><g class="cls-5"><path class="cls-6" d="M1004.16,1177.61,718.92,1291.43c-96.23,38.4-228.18,137.34-266.86,217.76-.21.44-.43.89-.64,1.34a2.62,2.62,0,0,1-4.07.89l0,0c1.07-10.73,4.51-22.1,9.93-33.84C493.9,1398,621,1301,714,1263.84l275.78-110c47.61-19,357.13-107.69,371.92-70.63l4.24,10.64C1290.15,1089.38,1046.62,1160.67,1004.16,1177.61Z"/></g></g></g></mask><linearGradient id="linear-gradient-7" x1="981.9" y1="3126.31" x2="981.9" y2="2118.36" gradientTransform="matrix(0.37, 0.93, 0.93, -0.37, -1908.13, 1324.25)" gradientUnits="userSpaceOnUse"><stop offset="0" stop-color="#fff"/><stop offset="1" stop-color="#fff"/></linearGradient><filter id="luminosity-noclip-8" x="1022.14" y="1146.02" width="390.31" height="198.31" filterUnits="userSpaceOnUse" color-interpolation-filters="sRGB"><feFlood flood-color="#fff" result="bg"/><feBlend in="SourceGraphic" in2="bg"/></filter><mask id="mask-8" x="598.52" y="715.4" width="390.31" height="198.31" maskUnits="userSpaceOnUse"><g class="cls-65"><g transform="translate(-423.62 -430.63)"><g class="cls-7"><path class="cls-8" d="M1022.14,1286.19,1386.77,1146l24.76,62.06c10.41,26.09-69.57,85.1-151.85,136.26C1134.12,1330,1022.14,1286.19,1022.14,1286.19Z"/></g></g></g></mask><linearGradient id="linear-gradient-8" x1="1050.6" y1="2931.01" x2="1192.63" y2="2931.01" gradientTransform="matrix(0.37, 0.93, 0.93, -0.37, -1908.13, 1324.25)" gradientUnits="userSpaceOnUse"><stop offset="0"/><stop offset="0.1" stop-color="#050505"/><stop offset="0.22" stop-color="#151515"/><stop offset="0.36" stop-color="#2e2e2e"/><stop offset="0.51" stop-color="#515151"/><stop offset="0.66" stop-color="#7f7f7f"/><stop offset="0.82" stop-color="#b7b7b7"/><stop offset="0.98" stop-color="#f7f7f7"/><stop offset="1" stop-color="#fff"/></linearGradient><linearGradient id="linear-gradient-9" x1="1046.73" y1="2668.42" x2="1046.73" y2="2496.57" gradientTransform="matrix(0.37, 0.93, 0.93, -0.37, -1908.13, 1324.25)" gradientUnits="userSpaceOnUse"><stop offset="0" stop-color="#808285"/><stop offset="0.24" stop-color="#888a8d"/><stop offset="0.6" stop-color="#9d9fa2"/><stop offset="1" stop-color="#bcbec0"/></linearGradient><linearGradient id="linear-gradient-10" x1="1046.73" y1="2664.07" x2="1046.73" y2="2500.92" gradientTransform="matrix(0.37, 0.93, 0.93, -0.37, -1908.13, 1324.25)" gradientUnits="userSpaceOnUse"><stop offset="0" stop-color="#bcbec0"/><stop offset="0.4" stop-color="#9d9fa2"/><stop offset="0.76" stop-color="#888a8d"/><stop offset="1" stop-color="#808285"/></linearGradient></defs><g class="cls-9"><g id="shadow"><ellipse class="cls-10" cx="631.79" cy="1296.02" rx="631.79" ry="39.45"/></g><g id="smoke"><circle class="cls-11" cx="1644.22" cy="1070.96" r="42.98" transform="translate(-699.32 1045.69) rotate(-45)"/><circle class="cls-12" cx="1580.33" cy="1070.96" r="42.98" transform="translate(-718.03 1000.51) rotate(-45)"/><circle class="cls-13" cx="1187.29" cy="611.59" r="42.98"/><circle class="cls-14" cx="1610.9" cy="1101.56" r="42.98" transform="translate(-730.71 1031.09) rotate(-45)"/><circle class="cls-11" cx="1815.01" cy="892.38" r="50.02" transform="translate(-580.09 10.25) rotate(-13.28)"/><circle class="cls-12" cx="1762.44" cy="944.95" r="50.02" transform="translate(-120.62 1881.49) rotate(-71.33)"/><circle class="cls-13" cx="1763.94" cy="896.14" r="50.02" transform="translate(-73.36 1849.73) rotate(-71.33)"/><circle class="cls-14" cx="1812.77" cy="944.97" r="50.02" transform="translate(-602.12 51.81) rotate(-14.46)"/><circle class="cls-11" cx="2056.81" cy="853.1" r="67.08" transform="translate(-424.42 1273.62) rotate(-45)"/><circle class="cls-12" cx="2056.81" cy="952.81" r="67.08" transform="translate(233.31 2305.06) rotate(-76.72)"/><circle class="cls-13" cx="2011.95" cy="905.1" r="67.08" transform="translate(-613.36 334.1) rotate(-20.57)"/><circle class="cls-14" cx="2104.57" cy="905.1" r="67.08" transform="translate(-447.2 1322.62) rotate(-45)"/><circle class="cls-11" cx="2322.67" cy="744.59" r="67.08" transform="translate(44.57 1898.29) rotate(-58.28)"/><circle class="cls-12" cx="1969.56" cy="384.47" r="67.08"/><circle class="cls-13" cx="2327.71" cy="813.08" r="67.08" transform="translate(-11.3 1935.06) rotate(-58.28)"/><circle class="cls-14" cx="1969.59" cy="316.96" r="67.08"/><circle class="cls-11" cx="2538.21" cy="564.08" r="77.95" transform="translate(-79.05 1529.37) rotate(-45)"/><circle class="cls-12" cx="2654.09" cy="564.08" r="77.95" transform="translate(-45.11 1611.31) rotate(-45)"/><circle class="cls-13" cx="2598.64" cy="616.21" r="77.95" transform="translate(-98.22 1587.37) rotate(-45)"/><circle class="cls-14" cx="2175.02" cy="77.95" r="77.95"/></g><g id="rocket"><path class="cls-15" d="M548.92,798.5S496,741.77,484.71,753.11,548.92,798.5,548.92,798.5Z" transform="translate(-423.62 -430.63)"/><path class="cls-14" d="M495.49,757c-.79,1.29,3.87,6,10.41,10.61s12.48,7.2,13.27,5.9-3.87-6-10.41-10.61S496.28,755.68,495.49,757Z" transform="translate(-423.62 -430.63)"/><path class="cls-15" d="M532.84,835.87s-101-41.8-108.85-20.66S532.84,835.87,532.84,835.87Z" transform="translate(-423.62 -430.63)"/><path class="cls-14" d="M440.08,813.86c-.26,2.13,8.5,5.5,19.54,7.52s20.22,1.94,20.47-.18-8.5-5.49-19.55-7.52S440.33,811.74,440.08,813.86Z" transform="translate(-423.62 -430.63)"/><path class="cls-15" d="M531,863.46S469.37,883.83,474,896.38,531,863.46,531,863.46Z" transform="translate(-423.62 -430.63)"/><path class="cls-14" d="M480.74,889.54c.71,1.05,5.95-.83,11.7-4.2s9.84-7,9.12-8-5.94.83-11.69,4.2S480,888.48,480.74,889.54Z" transform="translate(-423.62 -430.63)"/><path class="cls-15" d="M717,714.65s-.48-54.66,10.8-54.34S717,714.65,717,714.65Z" transform="translate(-423.62 -430.63)"/><path class="cls-14" d="M724.11,667.51c1,.28,1,5-.17,10.48s-2.88,9.73-3.92,9.45-.95-5,.18-10.47S723.08,667.23,724.11,667.51Z" transform="translate(-423.62 -430.63)"/><path class="cls-15" d="M743.3,726s31.33-70.35,45.6-63.35S743.3,726,743.3,726Z" transform="translate(-423.62 -430.63)"/><path class="cls-14" d="M780,669.71c1.16,1-1.68,6.92-6.35,13.32s-9.38,10.8-10.54,9.83,1.68-6.93,6.34-13.32S778.87,668.74,780,669.71Z" transform="translate(-423.62 -430.63)"/><path class="cls-15" d="M757.64,739.14S799,719.67,802.7,728.35,757.64,739.14,757.64,739.14Z" transform="translate(-423.62 -430.63)"/><path class="cls-14" d="M796,728.1c.15.89-3.44,2.47-8,3.53s-8.41,1.21-8.56.33,3.45-2.46,8-3.53S795.8,727.22,796,728.1Z" transform="translate(-423.62 -430.63)"/><path class="cls-16" d="M546.94,866.77l18.25-86.83s13.62-2.4,13.07,7-11.5,39.29-11.5,39.29,31.72-4.49,34.66,15.18c1.51,10.11-9.48,33.32-9.48,33.32Z" transform="translate(-423.62 -430.63)"/><path class="cls-16" d="M567.88,827.53s27.67-47.64,32.54-42.64,3.48,11.77-1.2,20.59-26.69,34-26.69,34S562.73,840.26,567.88,827.53Z" transform="translate(-423.62 -430.63)"/><polygon class="cls-17" points="170.28 451.03 173.19 428.8 121.59 432.51 121.61 452.34 170.28 451.03"/><path class="cls-18" d="M653.49,1010.72s-34.66,24.67-53.43,4c-17-18.62.8-136.84.8-136.84l-61.28-1s-35.84,145.78,26.38,187C656,1123.61,728.79,1060.3,653.49,1010.72Z" transform="translate(-423.62 -430.63)"/><path class="cls-19" d="M539.58,876.9l61.28,1s-.9,6-2.1,15.47c-56.23,12.83-57,123.85-15.33,156,54,20.74,70.06-38.67,70.06-38.67,75.3,49.58,2.53,112.89-87.53,53.2C503.74,1022.68,539.58,876.9,539.58,876.9Z" transform="translate(-423.62 -430.63)"/><path class="cls-20" d="M673.49,1253.21l-2,182.1-78.56,35,21-37.63-22.58-241.89L837,1156.27l3.91,15c1.47,19.56-11.87,20.26-31.82,26Z" transform="translate(-423.62 -430.63)"/><path class="cls-21" d="M630.21,1212.39l21.63,231.68,19.68-8.76,2-182.1,135.58-55.89c14.82-4.28,26-5.78,30.14-14.28Z" transform="translate(-423.62 -430.63)"/><path class="cls-22" d="M1241.2,1029.17c-144.84,67.65-197.23,150.37-192.14,231.23l-17.7,7.06-37.14-93c-43.07-107.94,171.14-294.85,279.08-337.92l67.36-26.88a36.17,36.17,0,0,1,47,20.19l36.93,92.54c16.48,41.31-13.47,86.34-57.94,87.1l-43.4.74A202.23,202.23,0,0,0,1241.2,1029.17Z" transform="translate(-423.62 -430.63)"/><path class="cls-23" d="M1366.73,817.37l-67.37,26.88c-107.93,43.07-322.14,230-279.07,337.92l28.49,71.39q.08,3.42.28,6.84l-17.7,7.06-37.14-93c-43.07-107.94,171.14-294.85,279.08-337.92l67.37-26.88a36.15,36.15,0,0,1,36,5.37A36.21,36.21,0,0,0,1366.73,817.37Z" transform="translate(-423.62 -430.63)"/><g class="cls-24"><path class="cls-25" d="M1124.62,1102.34c37.58-101.42,159.16-210.5,231.18-239.24l39-15.55,29.84,74.79c16.48,41.31-13.47,86.34-57.94,87.1l-43.4.74a202.23,202.23,0,0,0-82.06,19C1192.21,1052.06,1153.81,1076.66,1124.62,1102.34Z" transform="translate(-423.62 -430.63)"/></g><path class="cls-26" d="M994.22,1174.41c-12.33-30.91-3.55-68.28,17.77-106.9,53.36-12.28,112.82-16.45,166.81-4.87-97.68,60.53-134,129.8-129.74,197.76l-17.7,7.06Z" transform="translate(-423.62 -430.63)"/><path class="cls-22" d="M1355.1,1314.61c-151.62,50.65-246.57,26.72-298.54-35.43l-17.71,7.07,37.13,93.06c43.07,107.93,327.11,96,435.05,53l67.37-26.88a36.19,36.19,0,0,0,20.19-47l-36.93-92.54c-16.48-41.31-69.2-53.35-102-23.29l-32,29.34A202,202,0,0,1,1355.1,1314.61Z" transform="translate(-423.62 -430.63)"/><path class="cls-23" d="M1592,1381.81l-67.37,26.88c-107.94,43.07-392,55-435-53l-28.48-71.39c-1.53-1.69-3-3.41-4.5-5.16l-17.71,7.07,37.13,93.06c43.07,107.93,327.11,96,435.05,53l67.37-26.88a36.17,36.17,0,0,0,22.41-28.68A36.42,36.42,0,0,1,1592,1381.81Z" transform="translate(-423.62 -430.63)"/><g class="cls-27"><path class="cls-28" d="M1220.17,1341.81c97.08,47.69,260.36,43.1,332.38,14.36l39-15.54-29.85-74.79c-16.48-41.31-69.2-53.35-102-23.29l-32,29.34a202,202,0,0,1-72.59,42.72C1303.81,1331.74,1259,1340.33,1220.17,1341.81Z" transform="translate(-423.62 -430.63)"/></g><path class="cls-26" d="M1076,1379.31c12.33,30.9,44.43,52,86.48,65.3,47.15-27.84,93.15-65.74,124.34-111.31-112.52,23.34-186.56-1.88-230.24-54.12l-17.71,7.07Z" transform="translate(-423.62 -430.63)"/><rect class="cls-29" x="1344.07" y="1072.68" width="116.59" height="115.26" transform="translate(1508.83 -1021.72) rotate(68.25)"/><rect class="cls-30" x="1341.38" y="1127.02" width="116.59" height="8.72" transform="translate(1508.14 -1018.55) rotate(68.25)"/><rect class="cls-30" x="1355.61" y="1121.35" width="116.59" height="8.72" transform="translate(1511.82 -1035.33) rotate(68.25)"/><rect class="cls-30" x="1369.83" y="1115.67" width="116.59" height="8.72" transform="translate(1515.5 -1052.12) rotate(68.25)"/><rect class="cls-31" x="1384.02" y="1099.75" width="58.29" height="115.26" transform="translate(1540.78 -1014.72) rotate(68.25)"/><polygon class="cls-32" points="992.53 627.59 1028.24 560.01 1110.8 766.91 1038.38 742.49 992.53 627.59"/><polygon class="cls-33" points="1011.02 673.94 1061.55 643.49 1076.38 680.67 1019.27 694.59 1011.02 673.94"/><polygon class="cls-34" points="999.28 644.5 1040.39 590.48 1047.61 608.55 1003.28 654.54 999.28 644.5"/><polygon class="cls-35" points="1028.27 717.15 1092.59 721.28 1103.34 748.23 1034.24 732.11 1028.27 717.15"/><polygon class="cls-36" points="1017.54 690.27 1073.28 672.9 1086.77 706.71 1025.04 709.05 1017.54 690.27"/><polygon class="cls-37" points="992.53 627.59 1028.24 560.01 1037.77 583.91 997.82 640.86 992.53 627.59"/><path class="cls-38" d="M480.75,1536.45c-12.95-7.13-24.25-15.46-33.43-25,.06-13.27,2.52-27.09,7-41.18,30.28-95.59,152.79-204,245.83-241.08l275.77-110c47.61-19,360.55-99.12,379.55-51.51l56.06,140.49c19,47.61-263.14,204.94-310.75,223.94L825,1542.06C732,1579.18,568.51,1584.93,480.75,1536.45Z" transform="translate(-423.62 -430.63)"/><path d="M1300,1052.75c30-.53,50.94,3.58,55.43,14.84l56.06,140.49c4.5,11.26-7.88,28.67-30,48.92Z" transform="translate(-423.62 -430.63)"/><path class="cls-39" d="M480.75,1536.45c-12.95-7.13-24.25-15.46-33.43-25,.06-13.27,2.52-27.09,7-41.18,29.41-92.85,145.83-197.73,237.74-237.7l124.76,312.65C722.64,1579.46,566,1583.54,480.75,1536.45Z" transform="translate(-423.62 -430.63)"/><path class="cls-40" d="M478.82,1531.61c-12.33-5.59-23-12.3-31.5-20.21.73-11.6,3.84-23.8,8.94-36.34,34.48-85,160-185.9,253-223l275.78-110c47.61-19,358.29-104.78,374.51-64.13l47.86,119.93c16.22,40.65-268.17,192.32-315.78,211.32l-275.78,110C722.84,1556.29,562.37,1569.54,478.82,1531.61Z" transform="translate(-423.62 -430.63)"/><path class="cls-40" d="M476,1524.41a99.5,99.5,0,0,1-24.7-10.42c94.31-10.28,208-38.55,287.24-70.17l349.43-139.43c37.43-14.94,193-88,302.79-148.49l10.63,26.65c12.09,30.3-275.64,173.59-323.25,192.59l-275.78,110C709.28,1522.31,553.26,1546.71,476,1524.41Z" transform="translate(-423.62 -430.63)"/><g class="cls-41"><path class="cls-42" d="M1004.16,1177.61,718.92,1291.43c-96.23,38.4-228.18,137.34-266.86,217.76-.21.44-.43.89-.64,1.34a2.62,2.62,0,0,1-4.07.89l0,0c1.07-10.73,4.51-22.1,9.93-33.84C493.9,1398,621,1301,714,1263.84l275.78-110c47.61-19,357.13-107.69,371.92-70.63l4.24,10.64C1290.15,1089.38,1046.62,1160.67,1004.16,1177.61Z" transform="translate(-423.62 -430.63)"/></g><g class="cls-43"><path class="cls-44" d="M1022.14,1286.19,1386.77,1146l24.76,62.06c10.41,26.09-69.57,85.1-151.85,136.26C1134.12,1330,1022.14,1286.19,1022.14,1286.19Z" transform="translate(-423.62 -430.63)"/></g><path class="cls-22" d="M1512.21,1141.9l-38.16-95.62-311.42,124.26c-20.26,8.09-152.46,85.65-141.92,112.06h0c10.53,26.41,159.82-8.35,180.08-16.43Z" transform="translate(-423.62 -430.63)"/><path class="cls-31" d="M1200.79,1266.17c-16,6.37-112.21,29.34-157.34,25.8-3.83-.3,140.13-64.94,143.56-66.31l309.37-123.44,15.83,39.68Z" transform="translate(-423.62 -430.63)"/><path class="cls-23" d="M1163.51,1194.78c-16.82,6.71-104.43,54.84-142.37,88.69a7,7,0,0,1-.43-.87h0c-10.54-26.41,121.66-104,141.92-112.06l311.42-124.26,8.47,21.21Z" transform="translate(-423.62 -430.63)"/><path class="cls-45" d="M874.3,1261.34a121.4,121.4,0,0,1,49-8.72c24.63.79,47.94,19.72,58.58,46.38l8.56,21.46c10.64,26.66,6.76,56.44-10.55,74a123.12,123.12,0,0,1-90.48,36.1c-24.63-.79-47.94-19.72-58.58-46.38l-8.56-21.46c-10.64-26.66-6.76-56.44,10.55-74A121.66,121.66,0,0,1,874.3,1261.34Z" transform="translate(-423.62 -430.63)"/><path class="cls-46" d="M858.34,1243.49a121.4,121.4,0,0,1,49-8.72c24.62.79,47.94,19.72,58.58,46.38l8.56,21.46c10.64,26.66,6.76,56.44-10.55,74a123.12,123.12,0,0,1-90.48,36.1c-24.63-.79-47.94-19.72-58.58-46.38l-8.56-21.46c-10.64-26.66-6.76-56.44,10.55-74A121.52,121.52,0,0,1,858.34,1243.49Z" transform="translate(-423.62 -430.63)"/><path class="cls-47" d="M846.39,1259.14a121.56,121.56,0,0,1,49-8.71c24.63.79,47.94,19.72,58.58,46.38l8.56,21.46c10.64,26.66,6.76,56.44-10.55,74a123.12,123.12,0,0,1-90.48,36.1c-24.63-.79-47.94-19.72-58.58-46.38l-8.56-21.46c-10.64-26.66-6.76-56.44,10.55-74A121.54,121.54,0,0,1,846.39,1259.14Z" transform="translate(-423.62 -430.63)"/><path class="cls-48" d="M848,1263.21a115.37,115.37,0,0,1,46.48-8.28c23.38.75,45.52,18.72,55.61,44l8.13,20.38c10.1,25.31,6.42,53.58-10,70.22a116.84,116.84,0,0,1-85.89,34.28c-23.38-.75-45.52-18.73-55.62-44l-8.13-20.37c-10.1-25.31-6.42-53.59,10-70.23A115.5,115.5,0,0,1,848,1263.21Z" transform="translate(-423.62 -430.63)"/><path d="M851,1270.65a104,104,0,0,1,41.94-7.47c21.1.67,41.07,16.89,50.18,39.73l7.34,18.39c9.11,22.83,5.79,48.35-9,63.36a105.46,105.46,0,0,1-77.51,30.93c-21.1-.68-41.07-16.9-50.19-39.73l-7.33-18.39c-9.11-22.84-5.79-48.35,9-63.37A104,104,0,0,1,851,1270.65Z" transform="translate(-423.62 -430.63)"/><path class="cls-49" d="M852.68,1274.93a97.67,97.67,0,0,1,39.34-7c19.78.64,38.51,15.85,47.05,37.26l6.88,17.24c8.55,21.42,5.43,45.34-8.48,59.42a98.84,98.84,0,0,1-72.68,29c-19.78-.63-38.51-15.84-47-37.26l-6.88-17.24c-8.55-21.41-5.43-45.34,8.48-59.42A97.62,97.62,0,0,1,852.68,1274.93Z" transform="translate(-423.62 -430.63)"/><path class="cls-50" d="M858.56,1332l10.51,26.33c7.61,19.08,18.76,35.6,31.13,46.91a97,97,0,0,1-35.41,5.56c-19.78-.63-38.51-15.84-47-37.26l-6.88-17.24c-8.55-21.41-5.43-45.34,8.48-59.42a97.38,97.38,0,0,1,29.51-20.35C847.66,1293.3,851,1313,858.56,1332Z" transform="translate(-423.62 -430.63)"/><path class="cls-50" d="M883.86,1276.79a83.91,83.91,0,0,0-32.76,23.48c-13.33,15.53-14.91,43.31-4.68,69l8.24,20.64a93.87,93.87,0,0,0,11.66,21c-.51,0-1,0-1.53,0-19.78-.63-38.51-15.84-47-37.26l-6.88-17.24c-8.55-21.41-5.43-45.34,8.48-59.42a98.9,98.9,0,0,1,72.68-29,43.43,43.43,0,0,1,15,3.3A83.74,83.74,0,0,0,883.86,1276.79Z" transform="translate(-423.62 -430.63)"/><path class="cls-51" d="M768.91,1247.3l-9,190.37L683,1472.12,703,1433.68l-7.66-247.15L896,1160.14s38.41,37-25.78,58.62Z" transform="translate(-423.62 -430.63)"/><path class="cls-52" d="M712.41,1215.7l192.44-76.79L831.55,955.2l-37.23,2.39a193.54,193.54,0,0,0-105.5,38l-49.48,36.95Z" transform="translate(-423.62 -430.63)"/><path class="cls-14" d="M676,1033.69c-2.36,6.73,89.22,52.53,89.22,52.53s15.19-99.51,10.28-110.38S694.73,980.15,676,1033.69Z" transform="translate(-423.62 -430.63)"/><path class="cls-19" d="M904.85,1138.91,831.55,955.2l-37.23,2.39a193.54,193.54,0,0,0-105.5,38l-49.48,36.95,14.59,36.57c5.47-1.56,11.91-3.51,19.06-5.58,14,8.86,55.77,28.48,74.53,29.73,0,0-50.59-25.54-63.55-32.83,32.51-8.85,75.27-17.36,109.89-5.1l-11.93,27.7s15.12-10.59,26.27-21.08c24.94,14.59,43.29,43.67,46.24,97Zm-136,30.88s27.45-22.83-3.2-68.48Z" transform="translate(-423.62 -430.63)"/><path class="cls-21" d="M673.44,1050.8C733,1061.15,794,1016.85,801.91,957.1l-7.59.49a193.54,193.54,0,0,0-105.5,38l-40.57,30.3C652.88,1040.2,665,1050.09,673.44,1050.8Z" transform="translate(-423.62 -430.63)"/><polygon class="cls-21" points="332.28 664.06 359.44 655.74 365.48 752.03 354.44 754.56 332.28 664.06"/><path d="M713.2,1101.71l-4.64-26s-25.69-5.44-40.65-1.16-25.44,21.63-25.44,21.63l14.8,28.84,5.06-1.73-9.08-26.56,45.84-15.67,9.08,26.56Z" transform="translate(-423.62 -430.63)"/><polygon class="cls-53" points="229.23 816.52 369.54 768.57 336.38 652.97 183.62 705.17 229.23 816.52"/><polygon class="cls-19" points="252.52 808.56 369.54 768.57 336.38 652.97 206.91 697.21 252.52 808.56"/><polygon class="cls-54" points="235.99 814.21 243.16 811.76 197.55 700.41 190.38 702.86 235.99 814.21"/><path class="cls-19" d="M768.44,1113l24.71,86.17-117,40-8-19.47c56.29-13.84,7.61-79.44,28.38-85.41C731.39,1124.29,761,1142.16,768.44,1113Z" transform="translate(-423.62 -430.63)"/><path class="cls-52" d="M751.07,1221.78l-9,190.37-76.84,34.45,19.93-38.44L677.47,1161,903,1136.27l.62,6.68A42.17,42.17,0,0,1,873,1187.43Z" transform="translate(-423.62 -430.63)"/><path class="cls-19" d="M677.47,1161l.74,23.85c77.76,4.06,68.36,203.83,6.65,214.81l.26,8.49-19.93,38.44L742,1412.15l9-190.37,122-34.35A42.17,42.17,0,0,0,903.59,1143l-.62-6.68Z" transform="translate(-423.62 -430.63)"/><path class="cls-19" d="M842,981.46,823.4,995.69l34.11,85.5,5.24,32.1a34.23,34.23,0,0,1-18.44,36c-31.74,16.1-69,42.75-93.24,72.47l122-34.35A42.17,42.17,0,0,0,903.59,1143l-.31-3.41,1.58-.63Z" transform="translate(-423.62 -430.63)"/><path class="cls-55" d="M751.22,1001.05s44-14,56.34-53.53-15.12-70.48-3.6-98,35.09-55.19,35.09-55.19l-1.82-57.51-57,31s-17.91,52.6-12.4,78.56,29.1,49.68,22.3,80.31-33.17,58.14-41,59.67S744.06,1000,751.22,1001.05Z" transform="translate(-423.62 -430.63)"/><path class="cls-19" d="M775.88,868.35c8.47,18.17,19.1,36.53,14.24,58.42-.4,1.78-.87,3.55-1.39,5.31a76.08,76.08,0,0,1,16.58,21.45c.81-1.95,1.6-3.92,2.25-6,9.11-29.14-3.35-53.58-5.95-75.43C793.49,874.4,783.93,871.8,775.88,868.35Z" transform="translate(-423.62 -430.63)"/><path class="cls-21" d="M749.12,986.44c-7.83,1.53-5.06,13.53,2.1,14.61a104.84,104.84,0,0,0,24.68-12.79c-1.76-7.08-3.3-14.4-5.28-21.59C762,978,753.13,985.65,749.12,986.44Z" transform="translate(-423.62 -430.63)"/><path class="cls-56" d="M801,841c4.65-3.73,31.46-44.54,31.47-46.49s1.44-50-.61-50.36-6.77-.77-7.89,5.81,7.15,29.93,1.92,41.86S792.31,848,801,841Z" transform="translate(-423.62 -430.63)"/><circle class="cls-16" cx="742.53" cy="867.99" r="19.11" transform="translate(-773.65 770.62) rotate(-66.42)"/><path class="cls-57" d="M742.36,868.05a13.24,13.24,0,0,0-10.43-8.18,13.32,13.32,0,1,1,8.5,21.3A13.28,13.28,0,0,0,742.36,868.05Z" transform="translate(-423.62 -430.63)"/><path class="cls-58" d="M735.44,850.24a18.9,18.9,0,0,1,5-1.17,45.36,45.36,0,0,0,13.22,34.34,18.42,18.42,0,0,1-4.09,2.32,19.11,19.11,0,1,1-14.17-35.49Z" transform="translate(-423.62 -430.63)"/><circle class="cls-16" cx="605.14" cy="920.09" r="19.11" transform="translate(-918.68 441.54) rotate(-54.17)"/><path class="cls-57" d="M605.31,920a13.28,13.28,0,0,1,1.93-13.12,13.17,13.17,0,0,0-6.87.76,13.31,13.31,0,0,0,9.87,24.73,13.11,13.11,0,0,0,5.5-4.18A13.25,13.25,0,0,1,605.31,920Z" transform="translate(-423.62 -430.63)"/><path class="cls-58" d="M598.06,902.34a19,19,0,0,0-4.45,2.62,45.41,45.41,0,0,1,14,34,18.75,18.75,0,0,0,4.57-1.13,19.11,19.11,0,0,0-14.17-35.5Z" transform="translate(-423.62 -430.63)"/><path class="cls-16" d="M623.38,791.48a54.39,54.39,0,0,0-31.45,71.38c15.43,37.87,48.75,129,40.47,149-29.07,70,126.65,14.4,132.06-4.92,12.44-44.51-35.81-153.22-50.35-184.41-5.4-11.57-13.79-21.64-24.75-28.19C675.23,785.86,653.56,780.23,623.38,791.48Z" transform="translate(-423.62 -430.63)"/><path d="M671.09,849.94a2.8,2.8,0,0,0,2.18-.53c.09-.06,8.82-6.58,16-4.93,2.82.65,5,2.57,6.66,5.84a2.83,2.83,0,1,0,5.05-2.55C698.52,843,695,840,690.5,839c-9.74-2.25-20.19,5.6-20.63,5.94a2.83,2.83,0,0,0,1.22,5Z" transform="translate(-423.62 -430.63)"/><path d="M629.42,869.85a2.82,2.82,0,0,1-2,1.09c-.1,0-10.94,1.12-15.09,7.16-1.64,2.4-2,5.28-1,8.82a2.83,2.83,0,1,1-5.45,1.53c-1.46-5.17-.88-9.74,1.74-13.55,5.65-8.25,18.66-9.54,19.21-9.59a2.82,2.82,0,0,1,3.08,2.54A2.79,2.79,0,0,1,629.42,869.85Z" transform="translate(-423.62 -430.63)"/><ellipse class="cls-21" cx="635.95" cy="907.18" rx="18.02" ry="18.11" transform="translate(-714.51 -130.38) rotate(-21.75)"/><ellipse class="cls-16" cx="632.87" cy="906.49" rx="18.02" ry="18.11" transform="translate(-714.51 -131.52) rotate(-21.75)"/><ellipse class="cls-59" cx="632.87" cy="906.49" rx="13.27" ry="15.25" transform="translate(-714.5 -131.54) rotate(-21.75)"/><path d="M638.55,901.17a3.84,3.84,0,0,1,2,2.1,3.2,3.2,0,1,1-5.89,2.35.9.9,0,0,1,0-.16,6.45,6.45,0,0,0,.41,3.46c1.22,3.08,4.39,4.71,7.07,3.64s3.86-4.43,2.63-7.51A5.83,5.83,0,0,0,638.55,901.17Z" transform="translate(-423.62 -430.63)"/><ellipse class="cls-21" cx="691.66" cy="883.99" rx="18.02" ry="18.11" transform="translate(-701.85 -111.56) rotate(-21.74)"/><ellipse class="cls-16" cx="688.58" cy="883.3" rx="18.02" ry="18.11" transform="matrix(0.93, -0.37, 0.37, 0.93, -701.89, -112.62)"/><ellipse class="cls-59" cx="688.58" cy="883.3" rx="13.27" ry="15.25" transform="translate(-701.94 -112.52) rotate(-21.75)"/><path d="M694.26,878a3.84,3.84,0,0,1,2,2.1,3.2,3.2,0,1,1-5.89,2.35.9.9,0,0,1,0-.16,6.45,6.45,0,0,0,.41,3.46c1.22,3.08,4.39,4.71,7.07,3.64s3.86-4.43,2.63-7.51A5.82,5.82,0,0,0,694.26,878Z" transform="translate(-423.62 -430.63)"/><path class="cls-21" d="M705,941.61c9.74,24.4,2.94,30.74-7,34.7s-19.23,4.05-29-20.35-18.07-68.66-8.14-72.62S695.22,917.21,705,941.61Z" transform="translate(-423.62 -430.63)"/><path class="cls-16" d="M696.71,932.27c9.42,23.6,2.58,29.84-7.35,33.8s-19.18,4.15-28.6-19.46-17.21-66.5-7.28-70.46S687.29,908.67,696.71,932.27Z" transform="translate(-423.62 -430.63)"/><path class="cls-60" d="M656.13,876a4.8,4.8,0,0,0-2.65.12c-9.93,4-2.14,46.86,7.28,70.46,8.54,21.41,17,23.23,25.85,20.43-.61-3.87-1.47-8.22-2.65-13.2C678.38,930.43,666.71,897,656.13,876Z" transform="translate(-423.62 -430.63)"/><path class="cls-58" d="M714.11,822.49c-5.4-11.57-13.79-21.64-24.75-28.19A63.76,63.76,0,0,0,671,786.91c1.57.78,3.09,1.59,4.51,2.44,11,6.55,19.36,16.62,24.75,28.19,14.55,31.19,62.79,139.9,50.35,184.4-3.71,13.28-78.37,43.66-115.31,38.69,26.38,19.59,124.93-18.43,129.21-33.73C776.9,962.39,728.65,853.68,714.11,822.49Z" transform="translate(-423.62 -430.63)"/><path class="cls-61" d="M689.36,794.3c-14.13-8.44-35.8-14.07-66-2.82a54.39,54.39,0,0,0-33.1,66.62l117.27-46.8A61,61,0,0,0,689.36,794.3Z" transform="translate(-423.62 -430.63)"/><path class="cls-62" d="M623.27,791.52a54.39,54.39,0,0,0-33,66.58l24.22-9.67C610.47,829.32,614.24,809.38,623.27,791.52Z" transform="translate(-423.62 -430.63)"/><path class="cls-19" d="M648.8,1026.74c-2.84-9.8,14.65-23.48,39.06-30.55s46.51-4.88,49.35,4.92-19.26,7.56-43.68,14.64S651.64,1036.54,648.8,1026.74Z" transform="translate(-423.62 -430.63)"/><path class="cls-63" d="M646.27,1024.89c-2.84-9.8,14.65-23.48,39.06-30.56s46.51-4.87,49.35,4.92-19.26,7.57-43.67,14.65S649.11,1034.68,646.27,1024.89Z" transform="translate(-423.62 -430.63)"/><path class="cls-64" d="M648.1,1024.35c-2.25-7.77,14.89-19.58,38.29-26.36s44.2-6,46.46,1.79-19.5,3.68-42.91,10.46S650.36,1032.13,648.1,1024.35Z" transform="translate(-423.62 -430.63)"/><polygon points="261.51 977.53 223.57 1024.05 318.41 981.52 319.1 967.06 261.51 977.53"/><path class="cls-16" d="M751.32,785.22l-73-50.41s-11.53,7.63-4.65,14.08S709,769.47,709,769.47,683,788.06,694.36,804.35c5.86,8.37,29.81,17.64,29.81,17.64Z" transform="translate(-423.62 -430.63)"/><path class="cls-16" d="M734.27,775.35s7.46-38.65-1.44-40.43-12.8,1.42-14.94,7.61.5,30,.5,30S729.53,783.16,734.27,775.35Z" transform="translate(-423.62 -430.63)"/><path class="cls-16" d="M709.11,771.17s-52.86-15.5-53-8.52,5.58,10.94,15,14.11,42.8,6.32,42.8,6.32S721.61,776.86,709.11,771.17Z" transform="translate(-423.62 -430.63)"/><path class="cls-16" d="M702.56,783.35s-47.51-3.66-46.5,3.16,6.45,9.45,15,10.48,37.49-3.1,37.49-3.1S714.1,786.18,702.56,783.35Z" transform="translate(-423.62 -430.63)"/><path class="cls-16" d="M702.07,794.16s-38.79,10.79-36,15.92,7.84,5.64,15,4,28.89-13.28,28.89-13.28S712.05,793.09,702.07,794.16Z" transform="translate(-423.62 -430.63)"/><polygon class="cls-17" points="315.9 402.17 296.17 391.54 329.33 351.84 345.4 363.44 315.9 402.17"/><path class="cls-52" d="M809.42,956.59s40.27-13.72,34.51-41c-5.2-24.65-111.5-79.33-111.5-79.33l35-50.33s139.23,56.12,136.34,130.71C899.54,1024.61,805.64,1046.66,809.42,956.59Z" transform="translate(-423.62 -430.63)"/><path class="cls-19" d="M767.4,785.94l-35,50.33s5.39,2.78,13.77,7.34c43.27-38.13,133.83,26.1,135.54,78.72-14.75,56-72.32,34.26-72.32,34.26-3.78,90.07,90.12,68,94.32-39.94C906.63,842.06,767.4,785.94,767.4,785.94Z" transform="translate(-423.62 -430.63)"/><path class="cls-16" d="M581,831.85s31.93-35.36,35.9-29.72,1.82,11.29-3.68,17.94-29.33,23.56-29.33,23.56S574.6,841.85,581,831.85Z" transform="translate(-423.62 -430.63)"/><path class="cls-16" d="M588.82,839.35s35.55-18.87,37.08-13.25-1.81,9.49-8.09,13.19-30.09,10.26-30.09,10.26S580.84,845.45,588.82,839.35Z" transform="translate(-423.62 -430.63)"/></g></g></svg>