<svg xmlns="http://www.w3.org/2000/svg" xmlns:xlink="http://www.w3.org/1999/xlink" viewBox="0 0 164.21 68.01"><defs><style>.cls-1{isolation:isolate;}.cls-10,.cls-11,.cls-13,.cls-2,.cls-3,.cls-4,.cls-5,.cls-8,.cls-9{fill-rule:evenodd;}.cls-2{fill:url(#Безымянный_градиент_147);}.cls-3{fill:url(#Безымянный_градиент_587);}.cls-4,.cls-7{fill:#614881;}.cls-4,.cls-5,.cls-6{mix-blend-mode:multiply;}.cls-12,.cls-4,.cls-6{opacity:0.5;}.cls-5{opacity:0.8;fill:url(#Безымянный_градиент_87);}.cls-8{fill:url(#Безымянный_градиент_95);}.cls-9{fill:url(#Безымянный_градиент_109);}.cls-10{fill:url(#Безымянный_градиент_137);}.cls-11{fill:url(#Безымянный_градиент_141);}.cls-12{mix-blend-mode:screen;fill:url(#Безымянный_градиент_146);}.cls-13{fill:url(#Безымянный_градиент_170);}</style><radialGradient id="Безымянный_градиент_147" cx="956.21" cy="503.81" r="77.91" gradientTransform="translate(-34.03 456.41) rotate(-7.62) scale(1 0.43)" gradientUnits="userSpaceOnUse"><stop offset="0" stop-color="#2f3460"/><stop offset="0.98" stop-color="#270c3d"/></radialGradient><linearGradient id="Безымянный_градиент_587" x1="903.25" y1="475.19" x2="1065.49" y2="475.19" gradientTransform="translate(-72.37 169.79) rotate(-7.62)" gradientUnits="userSpaceOnUse"><stop offset="0" stop-color="#2f54b6"/><stop offset="0.64" stop-color="#391b5c"/><stop offset="0.98" stop-color="#2a164a"/></linearGradient><linearGradient id="Безымянный_градиент_87" x1="903.25" y1="487.85" x2="1035.65" y2="487.85" gradientTransform="translate(-72.37 169.79) rotate(-7.62)" gradientUnits="userSpaceOnUse"><stop offset="0.01" stop-color="#542f83"/><stop offset="0.94" stop-color="#fff"/></linearGradient><radialGradient id="Безымянный_градиент_95" cx="950.04" cy="449.88" r="12.15" gradientTransform="translate(-72.37 169.79) rotate(-7.62)" gradientUnits="userSpaceOnUse"><stop offset="0" stop-color="#635272"/><stop offset="0.31" stop-color="#614f70"/><stop offset="0.52" stop-color="#594669"/><stop offset="0.7" stop-color="#4c375e"/><stop offset="0.86" stop-color="#3a224e"/><stop offset="0.98" stop-color="#270c3d"/></radialGradient><radialGradient id="Безымянный_градиент_109" cx="938.69" cy="456.11" r="13.79" gradientTransform="translate(-72.37 169.79) rotate(-7.62)" gradientUnits="userSpaceOnUse"><stop offset="0" stop-color="#2f1160"/><stop offset="0.98" stop-color="#1d002c"/></radialGradient><linearGradient id="Безымянный_градиент_137" x1="998.33" y1="468.84" x2="1052.36" y2="468.84" gradientTransform="translate(-72.37 169.79) rotate(-7.62)" gradientUnits="userSpaceOnUse"><stop offset="0.07" stop-color="#f92cff"/><stop offset="0.6" stop-color="#009fff"/><stop offset="0.99" stop-color="#00ff90"/></linearGradient><linearGradient id="Безымянный_градиент_141" x1="949.02" y1="449.68" x2="976.42" y2="449.68" gradientTransform="translate(-72.37 169.79) rotate(-7.62)" gradientUnits="userSpaceOnUse"><stop offset="0" stop-color="#009fff"/><stop offset="0.93" stop-color="#f92cff"/></linearGradient><radialGradient id="Безымянный_градиент_146" cx="1076.98" cy="368.66" r="12.2" gradientTransform="matrix(2.3, 0, 0, 0.76, -1541.34, 221.05)" gradientUnits="userSpaceOnUse"><stop offset="0.01" stop-color="#003772"/><stop offset="0.09" stop-color="#003064"/><stop offset="0.37" stop-color="#001c39"/><stop offset="0.62" stop-color="#000d1a"/><stop offset="0.84" stop-color="#000307"/><stop offset="0.99"/></radialGradient><radialGradient id="Безымянный_градиент_170" cx="947.49" cy="472.79" r="22.34" gradientTransform="matrix(0.99, -0.13, 0.05, 0.39, -34.19, 455.23)" gradientUnits="userSpaceOnUse"><stop offset="0" stop-color="#0f062d"/><stop offset="0.98" stop-color="#0e0020"/></radialGradient></defs><g class="cls-1"><g id="Layer_1" data-name="Layer 1"><path class="cls-2" d="M886.52,525.37l16.31,24L1046.53,533s4-7.53,4-8.06c-1.83-11.22-15.45-40.75-60.42-43.46C937.28,478.34,886.52,525.37,886.52,525.37Z" transform="translate(-886.27 -481.37)"/><path class="cls-3" d="M886.52,525.37c87.56-50.9,73.47,29.25,163.34-2.63,0,0-9.63-43.18-70.93-40.61C925.41,484.39,886.52,525.37,886.52,525.37Z" transform="translate(-886.27 -481.37)"/><path class="cls-4" d="M902.83,549.38c37.37-5,103.5-15.47,122.91-20.26s24.74-4.14,24.74-4.14l-4,8.06Z" transform="translate(-886.27 -481.37)"/><path class="cls-5" d="M891.92,532.44s17.91-11.45,47.9-7.81,46.63,8,48.55,9.49-1.65,3.43-1.65,3.43l34-7.25s-8.79,2.79-32.48-1.95-43.07-35.35-101.76-3Z" transform="translate(-886.27 -481.37)"/><g class="cls-6"><path class="cls-7" d="M1009.64,531.07c-3.42,0-7.06-.13-10.92-.41-9.17-.69-16.89-5.09-25.07-9.76-18.71-10.68-39.92-22.79-86.87,4.9l-.51-.86c47.45-28,68.93-15.73,87.87-4.91,8.08,4.61,15.71,9,24.65,9.63,33.76,2.51,50.64-7.25,50.81-7.35l.51.86C1050,523.25,1036.48,531.07,1009.64,531.07Z" transform="translate(-886.27 -481.37)"/></g><path class="cls-7" d="M894.2,524.11A57.75,57.75,0,0,1,931,508.92a64.83,64.83,0,0,1,10.14.33,61.63,61.63,0,0,1,10,1.89,80.72,80.72,0,0,1,18.57,8.1c5.87,3.32,11.77,6.66,18.19,8.74a60.12,60.12,0,0,0,9.81,2.35,78.93,78.93,0,0,0,10.07.75,115.26,115.26,0,0,0,20.13-1.86c6.66-1.12,13.24-2.66,19.76-4.41-13,3.62-26.32,6.57-39.89,6.59a78,78,0,0,1-10.12-.71,60.85,60.85,0,0,1-9.88-2.32c-6.48-2.07-12.43-5.42-18.31-8.7-3-1.63-5.92-3.24-9-4.64a65.53,65.53,0,0,0-9.47-3.48,61.81,61.81,0,0,0-9.9-1.91,64.17,64.17,0,0,0-10.09-.38,59.79,59.79,0,0,0-19.66,4.24A54.82,54.82,0,0,0,894.2,524.11Z" transform="translate(-886.27 -481.37)"/><path class="cls-8" d="M949.11,489.34l7.94-2.11s-19.58-6.13-32.41,5.06C924.64,492.29,936.52,486.29,949.11,489.34Z" transform="translate(-886.27 -481.37)"/><g class="cls-6"><path class="cls-7" d="M904,512.37l-.3-.41c29.83-21.59,51.24-25.53,68.24-26.54l0,.5C955,486.92,933.69,490.85,904,512.37Z" transform="translate(-886.27 -481.37)"/></g><path class="cls-9" d="M914.33,504.8s9.81-23.42,34.78-15.46A172.39,172.39,0,0,0,914.33,504.8Z" transform="translate(-886.27 -481.37)"/><g class="cls-6"><path class="cls-7" d="M934.4,508.59l-.34-.36c.32-.3,32.73-29.89,63.61-26.21l-.06.49C967,478.88,934.72,508.3,934.4,508.59Z" transform="translate(-886.27 -481.37)"/></g><path class="cls-10" d="M977.17,485.92s30-1.8,54.18,26.09l3.76-.51s-19.71-26.81-56-26.17Z" transform="translate(-886.27 -481.37)"/><path class="cls-11" d="M928,489.81s9.94-6.55,25.07-1.51l2.28-.63S940.1,482.63,928,489.81Z" transform="translate(-886.27 -481.37)"/><ellipse class="cls-12" cx="938.23" cy="501.6" rx="28.1" ry="9.28" transform="translate(-992.22 -183.66) rotate(-17.08)"/><path class="cls-13" d="M905,518.48l5.25,3.48s21.64-7.59,41.37-1.59l5.39-4.66S930.73,504.81,905,518.48Z" transform="translate(-886.27 -481.37)"/><g class="cls-6"><rect class="cls-7" x="929.87" y="510.82" width="1" height="7.51" transform="translate(-976.53 -264.61) rotate(-12.68)"/></g></g></g></svg>