<svg xmlns="http://www.w3.org/2000/svg" xmlns:xlink="http://www.w3.org/1999/xlink" viewBox="0 0 251.16 239.07"><defs><style>.cls-1{fill:none;}.cls-2{isolation:isolate;}.cls-3{clip-path:url(#clip-path);}.cls-4{fill:url(#Безымянный_градиент_421);}.cls-10,.cls-11,.cls-5,.cls-6,.cls-7,.cls-8,.cls-9{fill-rule:evenodd;}.cls-11,.cls-12,.cls-5{mix-blend-mode:multiply;}.cls-5{opacity:0.3;fill:url(#Безымянный_градиент_895);}.cls-6,.cls-7,.cls-8{mix-blend-mode:screen;}.cls-12,.cls-6,.cls-7,.cls-8{opacity:0.5;}.cls-6{fill:url(#Безымянный_градиент_383);}.cls-7{fill:url(#Безымянный_градиент_383-2);}.cls-8{fill:url(#Безымянный_градиент_383-3);}.cls-9{fill:url(#Безымянный_градиент_404);}.cls-10{fill:url(#Безымянный_градиент_327);}.cls-11{opacity:0.8;fill:url(#Безымянный_градиент_408);}.cls-12{fill:url(#Безымянный_градиент_280);}</style><clipPath id="clip-path" transform="translate(-701.33 -226.62)"><rect class="cls-1" width="1000" height="500"/></clipPath><radialGradient id="Безымянный_градиент_421" cx="748.56" cy="338.22" r="92.35" gradientTransform="translate(333.52 -389.79) rotate(29.51)" gradientUnits="userSpaceOnUse"><stop offset="0" stop-color="#ff6d92"/><stop offset="0.13" stop-color="#f76394"/><stop offset="0.36" stop-color="#e34798"/><stop offset="0.65" stop-color="#c2199e"/><stop offset="0.8" stop-color="#b000a2"/><stop offset="1" stop-color="#ff4fb6"/></radialGradient><radialGradient id="Безымянный_градиент_895" cx="747.02" cy="333.57" r="86.83" gradientTransform="translate(-8 159.58) rotate(-15.49)" gradientUnits="userSpaceOnUse"><stop offset="0" stop-color="#fdf"/><stop offset="0.01" stop-color="#fddafc"/><stop offset="0.2" stop-color="#dda3cb"/><stop offset="0.39" stop-color="#c176a2"/><stop offset="0.56" stop-color="#ac5282"/><stop offset="0.73" stop-color="#9d396c"/><stop offset="0.88" stop-color="#94295e"/><stop offset="1" stop-color="#912459"/></radialGradient><radialGradient id="Безымянный_градиент_383" cx="761.13" cy="332.5" r="77.66" gradientTransform="translate(-8 159.58) rotate(-15.49)" gradientUnits="userSpaceOnUse"><stop offset="0" stop-color="#ffb66d"/><stop offset="0.13" stop-color="#e3a261"/><stop offset="0.42" stop-color="#9c6f43"/><stop offset="0.83" stop-color="#2c1f13"/><stop offset="0.99"/></radialGradient><radialGradient id="Безымянный_градиент_383-2" cx="746.11" cy="392.82" r="61.24" xlink:href="#Безымянный_градиент_383"/><radialGradient id="Безымянный_градиент_383-3" cx="786.24" cy="348.49" r="34.1" xlink:href="#Безымянный_градиент_383"/><radialGradient id="Безымянный_градиент_404" cx="741.15" cy="360.11" r="118.34" gradientTransform="translate(-8 159.58) rotate(-15.49)" gradientUnits="userSpaceOnUse"><stop offset="0" stop-color="#ff742f"/><stop offset="0.76" stop-color="#dd3f2c"/><stop offset="0.86" stop-color="#d9382c"/><stop offset="0.99" stop-color="#ff3351"/></radialGradient><radialGradient id="Безымянный_градиент_327" cx="740.79" cy="357.39" r="117.84" gradientTransform="translate(-8 159.58) rotate(-15.49)" gradientUnits="userSpaceOnUse"><stop offset="0" stop-color="#ffd65f"/><stop offset="0.47" stop-color="#ffa15c"/><stop offset="0.86" stop-color="#ff7259"/><stop offset="0.99" stop-color="#ff75e0"/></radialGradient><radialGradient id="Безымянный_градиент_408" cx="754.98" cy="386.36" r="60.2" gradientTransform="translate(-8 159.58) rotate(-15.49)" gradientUnits="userSpaceOnUse"><stop offset="0" stop-color="#fdf"/><stop offset="0.01" stop-color="#fddafd"/><stop offset="0.2" stop-color="#e1a3d9"/><stop offset="0.39" stop-color="#ca76bb"/><stop offset="0.56" stop-color="#b852a4"/><stop offset="0.73" stop-color="#ab3994"/><stop offset="0.88" stop-color="#a32989"/><stop offset="1" stop-color="#a02486"/></radialGradient><radialGradient id="Безымянный_градиент_280" cx="842.89" cy="642.35" r="90.46" gradientTransform="translate(-701.33 166.88) scale(1 0.1)" gradientUnits="userSpaceOnUse"><stop offset="0" stop-color="#3100b8"/><stop offset="0.08" stop-color="#4a1fc1"/><stop offset="0.28" stop-color="#8062d3"/><stop offset="0.46" stop-color="#ad9ae3"/><stop offset="0.63" stop-color="#d1c6ef"/><stop offset="0.78" stop-color="#eae5f8"/><stop offset="0.91" stop-color="#f9f8fd"/><stop offset="1" stop-color="#fff"/></radialGradient></defs><g class="cls-2"><g id="objects"><g class="cls-3"><circle class="cls-4" cx="825.92" cy="297.15" r="70.49" transform="translate(-669.55 444.43) rotate(-45)"/><path class="cls-5" d="M756.87,311.31c7.1,31,52.34,55.58,104.44,35.74s27.71-86.85,9.88-98.58-62.08-17.86-76.57,9.24-5.25,61.73,18.89,74.66,67.21-6.82,68-31.61S875,257.6,848.25,254.83s-38.86,15.83-29.8,39.42S856.3,314.68,868.92,306s3.71-27.8-9.7-27.65-26.14,10.13-10.69,12.54,9.42,12.82-3.33,14.51S815.42,294,818.49,278.32s12.55-10.87,32.76-13.41,27.16,12.13,28.1,29.18-19.74,41.35-49.59,39.7-30.5-34-28.19-56.85,23.54-35.43,47.5-34.86,38.73,23.94,41,45.08-6.47,52.81-45.54,61.47-71.18-46.43-70.42-73.26,29.18-45,29.18-45C744.72,254.58,756.87,311.31,756.87,311.31Z" transform="translate(-701.33 -226.62)"/><path class="cls-6" d="M803.27,230.4s-26.31,14.33-29.18,45,33.33,70.26,62,73.38S894,324.3,890.37,292.88,864,239.46,839.56,242.56s-34.07,12.73-34.15,27.18.08,45.41,16.49,54.33,22.46,7.24,22.46,7.24-29.6-8.71-35.13-39.11,3.36-39.29,23.23-45.34,49.87,9.53,53.08,42.27-22,65.47-60.85,51.95-50-59-40.12-79.75,53.07-33.7,53.07-33.7A68.91,68.91,0,0,0,803.27,230.4Z" transform="translate(-701.33 -226.62)"/><path class="cls-7" d="M767.26,336.26s36.3,26.55,72.71,19.58,52.47-35.36,52.47-35.36l-3.31,7.86S862.69,360.21,829.65,359s-53.15-11.56-53.15-11.56Z" transform="translate(-701.33 -226.62)"/><path class="cls-8" d="M830.29,312.91s21.72,8.95,39.51-3.73,3.74-34.75-5.89-40.2-33.89-3.78-39.82,4,4.81,26.73,11.65,27.21,11.81.84,11.09-3.07-5.61,1.06-12.19-.92S821,278.87,827.45,274s28.51-9.7,37.34,1.38S881.41,297,868.92,306,840.64,315.81,830.29,312.91Z" transform="translate(-701.33 -226.62)"/><path class="cls-9" d="M757.66,314.14s-25.09,8.55-55.82,28.22c-.87.56,1.17,2.58.28,3.16,0,0,108.23-1.11,250.11-68.18,0,0,1.06-3.52-1.07-3.87-7.4-1.21-29.41-1.08-58.45,1.17l.78,2.84s25.15-1,35.53,2.64c0,0-45.84,31.93-198.28,53.51a241.12,241.12,0,0,1,27.79-15.73Z" transform="translate(-701.33 -226.62)"/><path class="cls-10" d="M756.87,311.31s-23.43,10.58-55.54,31.38c0,0,107.95-2.14,249.83-69.22,0,0-21.83-3.9-59.22-1l.77,2.18s25.15-1,35.53,2.65c0,0-45.85,31.93-198.29,53.5a243,243,0,0,1,27.79-15.72Z" transform="translate(-701.33 -226.62)"/><path class="cls-11" d="M769.35,339.23s68.79-1.14,126.73-35.11L895,311.33s-44.59,41.79-120.2,34.36Z" transform="translate(-701.33 -226.62)"/><ellipse class="cls-12" cx="141.56" cy="230.15" rx="90.46" ry="8.91"/></g></g></g></svg>