<svg xmlns="http://www.w3.org/2000/svg" xmlns:xlink="http://www.w3.org/1999/xlink" viewBox="0 0 93.98 131.27"><defs><style>.cls-1{fill:none;}.cls-2{isolation:isolate;}.cls-3{clip-path:url(#clip-path);}.cls-4{fill:url(#Безымянный_градиент_366);}.cls-5{mix-blend-mode:multiply;opacity:0.3;}.cls-10,.cls-11,.cls-12,.cls-6,.cls-7,.cls-8,.cls-9{fill-rule:evenodd;}.cls-6{fill:url(#Безымянный_градиент_895);}.cls-7{fill:url(#Безымянный_градиент_895-2);}.cls-8{fill:url(#Безымянный_градиент_895-3);}.cls-9{fill:url(#Безымянный_градиент_895-4);}.cls-10{fill:url(#Безымянный_градиент_895-5);}.cls-11{fill:url(#Безымянный_градиент_895-6);}.cls-12{fill:url(#Безымянный_градиент_895-7);}.cls-13{mix-blend-mode:screen;opacity:0.89;fill:url(#Безымянный_градиент_387);}.cls-14{fill:url(#Безымянный_градиент_444);}</style><clipPath id="clip-path" transform="translate(-81.58 -211.32)"><rect class="cls-1" width="1000" height="500"/></clipPath><radialGradient id="Безымянный_градиент_366" cx="34.76" cy="72.94" r="61.56" gradientUnits="userSpaceOnUse"><stop offset="0" stop-color="#8170ff"/><stop offset="0.17" stop-color="#7766f5"/><stop offset="0.48" stop-color="#5c4adb"/><stop offset="0.8" stop-color="#3925b8"/><stop offset="1" stop-color="#ae11ae"/></radialGradient><radialGradient id="Безымянный_градиент_895" cx="128.74" cy="299.25" r="35.83" gradientUnits="userSpaceOnUse"><stop offset="0" stop-color="#fdf"/><stop offset="0.01" stop-color="#fddafc"/><stop offset="0.2" stop-color="#dda3cb"/><stop offset="0.39" stop-color="#c176a2"/><stop offset="0.56" stop-color="#ac5282"/><stop offset="0.73" stop-color="#9d396c"/><stop offset="0.88" stop-color="#94295e"/><stop offset="1" stop-color="#912459"/></radialGradient><radialGradient id="Безымянный_градиент_895-2" cx="125.93" cy="285" r="32.68" xlink:href="#Безымянный_градиент_895"/><radialGradient id="Безымянный_градиент_895-3" cx="123.77" cy="271.77" r="30.45" xlink:href="#Безымянный_градиент_895"/><radialGradient id="Безымянный_градиент_895-4" cx="136.84" cy="315.06" r="31.48" xlink:href="#Безымянный_градиент_895"/><radialGradient id="Безымянный_градиент_895-5" cx="145.71" cy="324.16" r="22.69" xlink:href="#Безымянный_градиент_895"/><radialGradient id="Безымянный_градиент_895-6" cx="151.27" cy="331.24" r="14.13" xlink:href="#Безымянный_градиент_895"/><radialGradient id="Безымянный_градиент_895-7" cx="123.99" cy="258.26" r="22.8" xlink:href="#Безымянный_градиент_895"/><radialGradient id="Безымянный_градиент_387" cx="109.69" cy="288.26" r="25.93" gradientTransform="translate(306.49 50.78) rotate(60.48)" gradientUnits="userSpaceOnUse"><stop offset="0" stop-color="#005eff"/><stop offset="0.04" stop-color="#0059f0"/><stop offset="0.25" stop-color="#003ea8"/><stop offset="0.44" stop-color="#00286c"/><stop offset="0.62" stop-color="#00173e"/><stop offset="0.77" stop-color="#000a1c"/><stop offset="0.9" stop-color="#000307"/><stop offset="0.99"/></radialGradient><radialGradient id="Безымянный_градиент_444" cx="65.02" cy="9.29" r="22.52" gradientUnits="userSpaceOnUse"><stop offset="0" stop-color="#4898ff"/><stop offset="0.15" stop-color="#4c8ef7"/><stop offset="0.42" stop-color="#5872e0"/><stop offset="0.77" stop-color="#6b44bb"/><stop offset="0.8" stop-color="#6d40b8"/><stop offset="1" stop-color="#a73ddd"/></radialGradient></defs><g class="cls-2"><g id="objects"><g class="cls-3"><circle class="cls-4" cx="46.99" cy="84.28" r="46.99"/><g class="cls-5"><path class="cls-6" d="M87.2,317.91c9.28,7.09,23.61-19.9,48.67-30.13s39.49,3.4,39.49,3.4l-.7-4.78s-18.35-13.28-41-3.23S98.48,305.33,82.11,302.7C82.11,302.7,83.78,312.5,87.2,317.91Z" transform="translate(-81.58 -211.32)"/><path class="cls-7" d="M81.58,295.6s1.92,9,28.33-7.82,60.37-13.85,60.37-13.85l-.84-1.54a96.34,96.34,0,0,0-40.7,5.2c-21.51,7.72-34.7,23-46.9,13.11Z" transform="translate(-81.58 -211.32)"/><path class="cls-8" d="M83,284.31s6.65,6.83,35.91-12.31,45.73-6.58,45.73-6.58l-6.52-6.4a59.78,59.78,0,0,0-40.85,7.19c-20.74,12.09-31.56,10.21-31.56,10.21A63.61,63.61,0,0,0,83,284.31Z" transform="translate(-81.58 -211.32)"/><path class="cls-9" d="M99.62,332.62s14-37.61,40.28-41.49,34.16,16.33,34.16,16.33l-.69,2.36s-10-22.87-35-16.9-30.49,36.44-26.66,46.57C111.75,339.49,102.85,335.39,99.62,332.62Z" transform="translate(-81.58 -211.32)"/><path class="cls-10" d="M119.43,341.7s.36-28.06,22.28-34.24S172,313.64,172,313.64l-2.69,5.44s-14.41-16.81-29.54-7.06-11.18,30.57-11.18,30.57A53,53,0,0,1,119.43,341.7Z" transform="translate(-81.58 -211.32)"/><path class="cls-11" d="M134.58,342.21s10.25-17.41,19-20.45,14.33-.53,14.33-.53S152.68,316.16,134.58,342.21Z" transform="translate(-81.58 -211.32)"/><path class="cls-12" d="M92.55,265.42s30-16.67,62.87-8.39l-2.82-1.82s-27.8-11.66-54.12,4.3Z" transform="translate(-81.58 -211.32)"/></g><circle class="cls-13" cx="109.69" cy="288.26" r="25.93" transform="translate(-276.78 30.36) rotate(-60.48)"/><circle class="cls-14" cx="67.92" cy="15.99" r="15.99"/></g></g></g></svg>