<svg xmlns="http://www.w3.org/2000/svg" xmlns:xlink="http://www.w3.org/1999/xlink" viewBox="0 0 209.67 354.12"><defs><style>.cls-1{fill:none;}.cls-2{isolation:isolate;}.cls-3{clip-path:url(#clip-path);}.cls-20,.cls-21,.cls-22,.cls-23,.cls-24,.cls-25,.cls-26,.cls-27,.cls-28,.cls-29,.cls-30,.cls-31,.cls-32,.cls-33,.cls-34,.cls-35,.cls-36,.cls-4,.cls-5,.cls-6,.cls-7{fill-rule:evenodd;}.cls-4{fill:url(#Безымянный_градиент_146);}.cls-12,.cls-13,.cls-20,.cls-24,.cls-26,.cls-34,.cls-35,.cls-36,.cls-5,.cls-7{mix-blend-mode:multiply;}.cls-24,.cls-26,.cls-34,.cls-35,.cls-36,.cls-5{opacity:0.5;}.cls-5{fill:url(#Безымянный_градиент_895);}.cls-6{fill:url(#Безымянный_градиент_226);}.cls-12,.cls-7{opacity:0.3;}.cls-7{fill:url(#Безымянный_градиент_231);}.cls-10,.cls-11,.cls-16,.cls-21,.cls-22,.cls-23,.cls-25,.cls-27,.cls-37,.cls-8,.cls-9{mix-blend-mode:screen;opacity:0.89;}.cls-8{fill:url(#Безымянный_градиент_401);}.cls-9{fill:url(#Безымянный_градиент_236);}.cls-10{fill:url(#Безымянный_градиент_236-2);}.cls-11{fill:url(#Безымянный_градиент_401-2);}.cls-12{fill:url(#Безымянный_градиент_221);}.cls-13{opacity:0.67;fill:url(#Безымянный_градиент_217);}.cls-14{fill:url(#Безымянный_градиент_209);}.cls-15{fill:url(#Безымянный_градиент_177);}.cls-17{fill:url(#Безымянный_градиент_204);}.cls-18{fill:url(#Безымянный_градиент_190);}.cls-19{fill:url(#Безымянный_градиент_134);}.cls-20{fill:#ff70d1;}.cls-21{fill:url(#Безымянный_градиент_236-3);}.cls-22{fill:url(#Безымянный_градиент_236-4);}.cls-23{fill:url(#Безымянный_градиент_236-5);}.cls-24{fill:url(#Безымянный_градиент_895-2);}.cls-25{fill:url(#Безымянный_градиент_236-6);}.cls-26{fill:url(#Безымянный_градиент_895-3);}.cls-27{fill:url(#Безымянный_градиент_236-7);}.cls-28{fill:url(#Безымянный_градиент_245);}.cls-29{fill:url(#Безымянный_градиент_254);}.cls-30{fill:url(#Безымянный_градиент_245-2);}.cls-31{fill:url(#Безымянный_градиент_254-2);}.cls-32{fill:url(#Безымянный_градиент_259);}.cls-33{fill:url(#Безымянный_градиент_254-3);}.cls-34{fill:url(#Безымянный_градиент_277);}.cls-35{fill:url(#Безымянный_градиент_277-2);}.cls-36{fill:url(#Безымянный_градиент_265);}.cls-37{fill:url(#Безымянный_градиент_285);}</style><clipPath id="clip-path" transform="translate(-167.15 -109.94)"><rect class="cls-1" width="1000" height="500"/></clipPath><radialGradient id="Безымянный_градиент_146" cx="246.56" cy="408.13" r="58.1" gradientUnits="userSpaceOnUse"><stop offset="0" stop-color="#4959ff"/><stop offset="0.23" stop-color="#4757fc"/><stop offset="0.42" stop-color="#424ff1"/><stop offset="0.6" stop-color="#3843e0"/><stop offset="0.77" stop-color="#2b32c7"/><stop offset="0.79" stop-color="#2930c4"/><stop offset="0.82" stop-color="#3631c1"/><stop offset="0.89" stop-color="#5a34ba"/><stop offset="0.98" stop-color="#9338ae"/><stop offset="0.98" stop-color="#9538ae"/></radialGradient><radialGradient id="Безымянный_градиент_895" cx="246.56" cy="405.32" r="57.52" gradientUnits="userSpaceOnUse"><stop offset="0" stop-color="#fdf"/><stop offset="0.01" stop-color="#fddafc"/><stop offset="0.2" stop-color="#dda3cb"/><stop offset="0.39" stop-color="#c176a2"/><stop offset="0.56" stop-color="#ac5282"/><stop offset="0.73" stop-color="#9d396c"/><stop offset="0.88" stop-color="#94295e"/><stop offset="1" stop-color="#912459"/></radialGradient><radialGradient id="Безымянный_градиент_226" cx="205.57" cy="127.43" r="135.64" gradientTransform="matrix(1, 0, -0.01, 2.65, 1.08, -102.22)" gradientUnits="userSpaceOnUse"><stop offset="0" stop-color="#fff"/><stop offset="0.21" stop-color="#eae6ff"/><stop offset="0.53" stop-color="#cec5ff"/><stop offset="0.71" stop-color="#c3b8ff"/><stop offset="0.79" stop-color="#c6bbff"/><stop offset="0.85" stop-color="#cec5ff"/><stop offset="0.91" stop-color="#ddd6ff"/><stop offset="0.97" stop-color="#f1eeff"/><stop offset="1" stop-color="#fff"/></radialGradient><linearGradient id="Безымянный_градиент_231" x1="195.78" y1="256.54" x2="346.51" y2="256.54" gradientUnits="userSpaceOnUse"><stop offset="0.06" stop-color="#3100b8"/><stop offset="0.09" stop-color="#4316be"/><stop offset="0.15" stop-color="#6a46cc"/><stop offset="0.22" stop-color="#8d72d8"/><stop offset="0.29" stop-color="#ac98e2"/><stop offset="0.37" stop-color="#c6b8eb"/><stop offset="0.46" stop-color="#dbd2f2"/><stop offset="0.55" stop-color="#ebe6f8"/><stop offset="0.65" stop-color="#f6f4fc"/><stop offset="0.78" stop-color="#fdfdfe"/><stop offset="1" stop-color="#fff"/></linearGradient><radialGradient id="Безымянный_градиент_401" cx="79.72" cy="207.39" r="35.48" gradientTransform="matrix(0.3, 0.94, -1.17, 0.25, 478.29, 31.73)" gradientUnits="userSpaceOnUse"><stop offset="0" stop-color="#0079ff"/><stop offset="0.04" stop-color="#0072f0"/><stop offset="0.25" stop-color="#0050a8"/><stop offset="0.44" stop-color="#00336c"/><stop offset="0.62" stop-color="#001d3e"/><stop offset="0.77" stop-color="#000d1c"/><stop offset="0.9" stop-color="#000407"/><stop offset="0.99"/></radialGradient><radialGradient id="Безымянный_градиент_236" cx="710.65" cy="650.38" r="26.24" gradientTransform="matrix(0.6, 0.02, -0.01, 1.79, -199.25, -873.78)" gradientUnits="userSpaceOnUse"><stop offset="0" stop-color="#8dd6ff"/><stop offset="0.26" stop-color="#8cd4fd"/><stop offset="0.4" stop-color="#87cef5"/><stop offset="0.5" stop-color="#80c2e8"/><stop offset="0.6" stop-color="#75b2d4"/><stop offset="0.68" stop-color="#689ebc"/><stop offset="0.75" stop-color="#57849d"/><stop offset="0.82" stop-color="#436679"/><stop offset="0.89" stop-color="#2c424f"/><stop offset="0.95" stop-color="#121c21"/><stop offset="0.99"/></radialGradient><radialGradient id="Безымянный_градиент_236-2" cx="594.39" cy="590.36" r="9.44" gradientTransform="translate(-319.55 -944.69) scale(0.6 1.79)" xlink:href="#Безымянный_градиент_236"/><radialGradient id="Безымянный_градиент_401-2" cx="499.92" cy="673.58" r="35.49" gradientTransform="translate(-265.47 -1218.94) scale(0.82 2.13)" xlink:href="#Безымянный_градиент_401"/><radialGradient id="Безымянный_градиент_221" cx="400.44" cy="836.08" r="35.48" gradientTransform="translate(-247.43 -3125.28) scale(0.96 3.92)" gradientUnits="userSpaceOnUse"><stop offset="0" stop-color="#3100b8"/><stop offset="0.65" stop-color="#baaae7"/><stop offset="1" stop-color="#fff"/></radialGradient><radialGradient id="Безымянный_градиент_217" cx="271.15" cy="247.89" r="56.46" gradientTransform="translate(448.23 -74) rotate(76.38)" gradientUnits="userSpaceOnUse"><stop offset="0" stop-color="#3100b8"/><stop offset="0.23" stop-color="#3303b9"/><stop offset="0.37" stop-color="#3a0bbb"/><stop offset="0.48" stop-color="#4519bf"/><stop offset="0.58" stop-color="#562dc5"/><stop offset="0.67" stop-color="#6b48cc"/><stop offset="0.75" stop-color="#8568d5"/><stop offset="0.83" stop-color="#a48ee0"/><stop offset="0.91" stop-color="#c8baec"/><stop offset="0.97" stop-color="#efebfa"/><stop offset="1" stop-color="#fff"/></radialGradient><radialGradient id="Безымянный_градиент_209" cx="287.49" cy="180.05" r="56.46" gradientTransform="translate(244.19 -123.48) rotate(45)" gradientUnits="userSpaceOnUse"><stop offset="0" stop-color="#98caff"/><stop offset="0.09" stop-color="#95c8ff"/><stop offset="0.17" stop-color="#8ac2fe"/><stop offset="0.24" stop-color="#79b7fd"/><stop offset="0.31" stop-color="#60a9fc"/><stop offset="0.37" stop-color="#4397fa"/><stop offset="0.48" stop-color="#4091f7"/><stop offset="0.63" stop-color="#377fef"/><stop offset="0.81" stop-color="#2861e3"/><stop offset="1" stop-color="#1339d1"/></radialGradient><radialGradient id="Безымянный_градиент_177" cx="81.26" cy="135.39" r="87.19" gradientUnits="userSpaceOnUse"><stop offset="0" stop-color="#4959ff"/><stop offset="0.34" stop-color="#4658fc"/><stop offset="0.62" stop-color="#3e55f1"/><stop offset="0.89" stop-color="#314fe0"/><stop offset="1" stop-color="#294cd6"/></radialGradient><linearGradient id="Безымянный_градиент_204" x1="271.15" y1="288.42" x2="271.15" y2="177.62" gradientUnits="userSpaceOnUse"><stop offset="0" stop-color="#0079ff"/><stop offset="0.02" stop-color="#0074f4"/><stop offset="0.09" stop-color="#005cc1"/><stop offset="0.17" stop-color="#004693"/><stop offset="0.25" stop-color="#00336c"/><stop offset="0.34" stop-color="#00234a"/><stop offset="0.43" stop-color="#00162f"/><stop offset="0.53" stop-color="#000c1a"/><stop offset="0.64" stop-color="#00050b"/><stop offset="0.78" stop-color="#000103"/><stop offset="0.99"/></linearGradient><radialGradient id="Безымянный_градиент_190" cx="106.58" cy="154.48" r="62.44" gradientUnits="userSpaceOnUse"><stop offset="0" stop-color="#43cfff"/><stop offset="0.15" stop-color="#42c5fe"/><stop offset="0.4" stop-color="#3fa8fa"/><stop offset="0.73" stop-color="#3b7bf4"/><stop offset="0.95" stop-color="#3859ef"/></radialGradient><radialGradient id="Безымянный_градиент_134" cx="90.08" cy="109.21" r="57.74" gradientUnits="userSpaceOnUse"><stop offset="0.01" stop-color="#c7f9ff"/><stop offset="0.2" stop-color="#ccfaff"/><stop offset="0.43" stop-color="#dcfbff"/><stop offset="0.7" stop-color="#f5feff"/><stop offset="0.78" stop-color="#fff"/></radialGradient><radialGradient id="Безымянный_градиент_236-3" cx="-123.41" cy="254.35" r="9.44" gradientTransform="matrix(0.49, 0.27, -0.81, 0.93, 505.09, -62.04)" xlink:href="#Безымянный_градиент_236"/><radialGradient id="Безымянный_градиент_236-4" cx="49.93" cy="243.38" r="9.44" gradientTransform="matrix(0.44, -0.35, 0.53, 1.11, 180.33, -75.71)" xlink:href="#Безымянный_градиент_236"/><radialGradient id="Безымянный_градиент_236-5" cx="-9.93" cy="305.72" r="9.44" gradientTransform="matrix(0.57, -0.28, -0.17, 2.64, 396.22, -553.15)" xlink:href="#Безымянный_градиент_236"/><radialGradient id="Безымянный_градиент_895-2" cx="269.87" cy="12.7" r="35.86" gradientTransform="translate(0 134.6) scale(1 0.79)" xlink:href="#Безымянный_градиент_895"/><radialGradient id="Безымянный_градиент_236-6" cx="280.38" cy="12.02" r="26.05" gradientTransform="translate(0 134.6) scale(1 0.79)" xlink:href="#Безымянный_градиент_236"/><radialGradient id="Безымянный_градиент_895-3" cx="271.43" cy="384.65" r="43.12" xlink:href="#Безымянный_градиент_895"/><radialGradient id="Безымянный_градиент_236-7" cx="271.08" cy="385.77" r="37.86" gradientTransform="matrix(1, 0, 0, 1, 0, 0)" xlink:href="#Безымянный_градиент_236"/><radialGradient id="Безымянный_градиент_245" cx="190.07" cy="371.48" r="74.99" gradientUnits="userSpaceOnUse"><stop offset="0" stop-color="#ffac00"/><stop offset="0.08" stop-color="orange"/><stop offset="0.44" stop-color="#ff8900"/><stop offset="0.76" stop-color="#ff7800"/><stop offset="1" stop-color="#ff7200"/></radialGradient><radialGradient id="Безымянный_градиент_254" cx="192.07" cy="371.48" r="74.99" gradientUnits="userSpaceOnUse"><stop offset="0" stop-color="#ff8600"/><stop offset="0.39" stop-color="#f16b11"/><stop offset="0.74" stop-color="#e85a1b"/><stop offset="1" stop-color="#e5541f"/></radialGradient><radialGradient id="Безымянный_градиент_245-2" cx="-397.44" cy="371.48" r="74.99" gradientTransform="matrix(-1, 0, 0, 1, -43.53, 0)" xlink:href="#Безымянный_градиент_245"/><radialGradient id="Безымянный_градиент_254-2" cx="-395.44" cy="371.48" r="74.99" gradientTransform="matrix(-1, 0, 0, 1, -43.53, 0)" xlink:href="#Безымянный_градиент_254"/><radialGradient id="Безымянный_градиент_259" cx="-1628.2" cy="368.33" r="78.39" gradientTransform="matrix(-0.29, 0, 0, 1, -160.7, 0)" gradientUnits="userSpaceOnUse"><stop offset="0" stop-color="#ffdb00"/><stop offset="0.13" stop-color="#ffc200"/><stop offset="0.4" stop-color="#ff9500"/><stop offset="0.53" stop-color="#ff8300"/><stop offset="0.59" stop-color="#ff7d00"/><stop offset="0.75" stop-color="#ff7500"/><stop offset="1" stop-color="#ff7200"/></radialGradient><radialGradient id="Безымянный_градиент_254-3" cx="-1595.26" cy="371.48" r="74.99" gradientTransform="matrix(-0.29, 0, 0, 1, -160.7, 0)" xlink:href="#Безымянный_градиент_254"/><linearGradient id="Безымянный_градиент_277" x1="151.69" y1="257.95" x2="171.19" y2="257.95" gradientUnits="userSpaceOnUse"><stop offset="0" stop-color="#fff"/><stop offset="0.19" stop-color="#fdfcfd"/><stop offset="0.35" stop-color="#f7f2f7"/><stop offset="0.49" stop-color="#ece1ed"/><stop offset="0.62" stop-color="#ddcadf"/><stop offset="0.75" stop-color="#c9abcd"/><stop offset="0.87" stop-color="#b186b7"/><stop offset="0.99" stop-color="#955a9e"/><stop offset="1" stop-color="#91549a"/></linearGradient><linearGradient id="Безымянный_градиент_277-2" x1="258.13" y1="369.07" x2="293.4" y2="369.07" xlink:href="#Безымянный_градиент_277"/><radialGradient id="Безымянный_градиент_265" cx="212.25" cy="352.09" r="38.75" gradientTransform="translate(424.51 1578.45) rotate(180) scale(1 3.48)" gradientUnits="userSpaceOnUse"><stop offset="0" stop-color="#ff789c"/><stop offset="0.17" stop-color="#e2628a"/><stop offset="0.41" stop-color="#bf4775"/><stop offset="0.63" stop-color="#a63466"/><stop offset="0.84" stop-color="#96285c"/><stop offset="1" stop-color="#912459"/></radialGradient><radialGradient id="Безымянный_градиент_285" cx="120.65" cy="122.63" r="58.36" gradientUnits="userSpaceOnUse"><stop offset="0" stop-color="#00b6ff"/><stop offset="0.04" stop-color="#00abf0"/><stop offset="0.25" stop-color="#0078a8"/><stop offset="0.44" stop-color="#004d6c"/><stop offset="0.62" stop-color="#002c3e"/><stop offset="0.77" stop-color="#00141c"/><stop offset="0.9" stop-color="#000507"/><stop offset="0.99"/></radialGradient></defs><g class="cls-2"><g id="objects"><g class="cls-3"><path class="cls-4" d="M234.79,403.15l3.48,12.22s31.87,6.44,67,0L308,402.51S260.77,403.79,234.79,403.15Z" transform="translate(-167.15 -109.94)"/><path class="cls-5" d="M235.87,406.93s45.51-3.57,70.49,3.44l1.64-7.86-73.21.64Z" transform="translate(-167.15 -109.94)"/><path class="cls-6" d="M345.92,208.54c-4.29-60.2-58.62-96.27-74.77-98.6-16.16,2.33-70.49,38.4-74.78,98.6S212.67,401,212.67,401s33,3.27,58.48,3.27c26.87,0,58.47-3.27,58.47-3.27S350.21,268.73,345.92,208.54Z" transform="translate(-167.15 -109.94)"/><path class="cls-7" d="M329.62,401s-29.24,2.2-58.47,2.2c-14.67,0-58.48-2.2-58.48-2.2s-20.59-132.22-16.3-192.41c1.7-23.8,11.21-43.82,23.1-59.48,18.17-24,41.9-37.71,51.68-39.12,9.31,1.34,31.33,13.91,49.12,35.87,13.06,16.1,23.84,37.25,25.65,62.73C350.21,268.73,329.62,401,329.62,401Z" transform="translate(-167.15 -109.94)"/><ellipse class="cls-8" cx="260.7" cy="157.88" rx="42.77" ry="34.55" transform="translate(-169.46 201.95) rotate(-61.55)"/><ellipse class="cls-9" cx="223.14" cy="306.9" rx="15.75" ry="47.09" transform="translate(-191.09 -91.02) rotate(-4.61)"/><ellipse class="cls-10" cx="37.68" cy="113.35" rx="5.67" ry="16.92"/><ellipse class="cls-11" cx="143.31" cy="216.51" rx="29.02" ry="75.62"/><ellipse class="cls-12" cx="138.16" cy="153" rx="34.17" ry="139.13"/><circle class="cls-13" cx="271.15" cy="247.89" r="56.46" transform="translate(-200.76 343.12) rotate(-76.38)"/><circle class="cls-14" cx="271.15" cy="233.02" r="56.46" transform="translate(-252.51 150.04) rotate(-45)"/><circle class="cls-15" cx="103.99" cy="123.09" r="54.9"/><g class="cls-16"><path class="cls-17" d="M271.15,288.42a55.4,55.4,0,1,1,55.4-55.4A55.47,55.47,0,0,1,271.15,288.42Zm0-109.8a54.4,54.4,0,1,0,54.4,54.4A54.47,54.47,0,0,0,271.15,178.62Z" transform="translate(-167.15 -109.94)"/></g><circle class="cls-18" cx="103.99" cy="123.09" r="39.32"/><circle class="cls-19" cx="103.99" cy="123.09" r="36.35"/><path class="cls-20" d="M320.27,145.81c-60-10.57-100.8,3.25-100.8,3.25,18.17-24,41.9-37.71,51.68-39.12C280.46,111.28,302.48,123.85,320.27,145.81Z" transform="translate(-167.15 -109.94)"/><path class="cls-21" d="M242.94,142.69c-4.22,4.83-9.73,7.6-12.31,6.19s-1.24-6.47,3-11.3,9.72-7.59,12.3-6.18S247.16,137.86,242.94,142.69Z" transform="translate(-167.15 -109.94)"/><path class="cls-22" d="M336.54,173.28c2.79,5.77,3.17,11.93.86,13.74s-6.44-1.39-9.22-7.17-3.17-11.93-.86-13.75S333.76,167.5,336.54,173.28Z" transform="translate(-167.15 -109.94)"/><path class="cls-23" d="M345.38,253.41c-.87,13.75-4,26.06-6.94,27.5s-4.67-8.54-3.81-22.29,4-26.06,6.93-27.5S346.24,239.66,345.38,253.41Z" transform="translate(-167.15 -109.94)"/><path class="cls-24" d="M219.47,149.06s45.13-12.36,100.8-3.25C320.27,145.81,273.57,131.37,219.47,149.06Z" transform="translate(-167.15 -109.94)"/><path class="cls-25" d="M243.58,144.66a330,330,0,0,1,73.6.66A635,635,0,0,0,243.58,144.66Z" transform="translate(-167.15 -109.94)"/><path class="cls-20" d="M210.5,386.21s59.69,2.35,121.86-4l-2.74,18.67s-53.61,8.38-117,0Z" transform="translate(-167.15 -109.94)"/><path class="cls-26" d="M210.5,386.21s62.54,3.75,121.86-4C332.36,382.18,275.4,386.15,210.5,386.21Z" transform="translate(-167.15 -109.94)"/><path class="cls-27" d="M217.6,387.11s61.65,4.76,107-4C324.56,383.14,277.86,390,217.6,387.11Z" transform="translate(-167.15 -109.94)"/><path class="cls-28" d="M203.64,333.59s-89,68.7,11.05,130.47h8.45s-28.17-44-11-66.5l-6.54-64Z" transform="translate(-167.15 -109.94)"/><path class="cls-29" d="M205.64,333.59s-89,68.7,11.05,130.47h8.45s-28.17-44-11-66.5Z" transform="translate(-167.15 -109.94)"/><path class="cls-30" d="M340.34,333.59s89,68.7-11,130.47h-8.45s28.17-44,11-66.5l6.54-64Z" transform="translate(-167.15 -109.94)"/><path class="cls-31" d="M338.34,333.59s89,68.7-11,130.47h-8.45s28.17-44,11-66.5Z" transform="translate(-167.15 -109.94)"/><path class="cls-32" d="M301.44,333.59s25.55,68.7-3.18,130.47h-8s13.69-44,8.75-66.5l-5.58-64Z" transform="translate(-167.15 -109.94)"/><path class="cls-33" d="M293.4,333.59s25.56,68.7-3.17,130.47H287.8s8.09-44,3.15-66.5Z" transform="translate(-167.15 -109.94)"/><polygon class="cls-34" points="171.19 223.65 151.69 292.24 162.47 290.91 171.19 223.65"/><path class="cls-35" d="M293.4,333.59s-15.32,53.69-35.27,70.2a183.58,183.58,0,0,0,33.81,0Z" transform="translate(-167.15 -109.94)"/><path class="cls-36" d="M205.64,333.59s12.58,48.15,27.82,69.47l-20.79-2.21Z" transform="translate(-167.15 -109.94)"/><circle class="cls-37" cx="120.65" cy="122.63" r="58.36"/></g></g></g></svg>