<svg xmlns="http://www.w3.org/2000/svg" xmlns:xlink="http://www.w3.org/1999/xlink" viewBox="0 0 678.12 94.2"><defs><style>.cls-1{fill:none;}.cls-2{isolation:isolate;}.cls-3{clip-path:url(#clip-path);}.cls-10,.cls-4,.cls-5,.cls-6,.cls-7,.cls-8,.cls-9{fill-rule:evenodd;}.cls-4{mix-blend-mode:multiply;fill:url(#Безымянный_градиент_427);}.cls-10,.cls-4,.cls-7{opacity:0.5;}.cls-5{fill:url(#Безымянный_градиент_146);}.cls-6{fill:url(#Безымянный_градиент_150);}.cls-10,.cls-35,.cls-36,.cls-7{mix-blend-mode:screen;}.cls-7{fill:url(#Безымянный_градиент_238);}.cls-8{fill:url(#Безымянный_градиент_146-2);}.cls-9{fill:url(#Безымянный_градиент_150-2);}.cls-10{fill:url(#Безымянный_градиент_238-2);}.cls-11{fill:url(#Безымянный_градиент_643);}.cls-12{fill:url(#Безымянный_градиент_647);}.cls-13{fill:url(#Безымянный_градиент_643-2);}.cls-14{fill:url(#Безымянный_градиент_647-2);}.cls-15{fill:url(#Безымянный_градиент_643-3);}.cls-16{fill:url(#Безымянный_градиент_647-3);}.cls-17{fill:url(#Безымянный_градиент_643-4);}.cls-18{fill:url(#Безымянный_градиент_647-4);}.cls-19{fill:url(#Безымянный_градиент_643-5);}.cls-20{fill:url(#Безымянный_градиент_647-5);}.cls-21{fill:url(#Безымянный_градиент_643-6);}.cls-22{fill:url(#Безымянный_градиент_647-6);}.cls-23{fill:url(#Безымянный_градиент_643-7);}.cls-24{fill:url(#Безымянный_градиент_647-7);}.cls-25{fill:url(#Безымянный_градиент_643-8);}.cls-26{fill:url(#Безымянный_градиент_647-8);}.cls-27{fill:url(#Безымянный_градиент_643-9);}.cls-28{fill:url(#Безымянный_градиент_647-9);}.cls-29{fill:url(#Безымянный_градиент_643-10);}.cls-30{fill:url(#Безымянный_градиент_647-10);}.cls-31{fill:url(#Безымянный_градиент_643-11);}.cls-32{fill:url(#Безымянный_градиент_647-11);}.cls-33{fill:url(#Безымянный_градиент_643-12);}.cls-34{fill:url(#Безымянный_градиент_647-12);}.cls-35{opacity:0.89;fill:url(#Безымянный_градиент_401);}.cls-36{opacity:0.63;fill:url(#Безымянный_градиент_468);}</style><clipPath id="clip-path" transform="translate(-164.78 -390.7)"><rect class="cls-1" width="1000" height="500"/></clipPath><radialGradient id="Безымянный_градиент_427" cx="503.7" cy="471.04" r="187.5" gradientTransform="translate(-141.1) scale(1.28 1)" gradientUnits="userSpaceOnUse"><stop offset="0" stop-color="#fdf"/><stop offset="0.01" stop-color="#fddafd"/><stop offset="0.2" stop-color="#dda3e0"/><stop offset="0.39" stop-color="#c176c8"/><stop offset="0.56" stop-color="#ac52b5"/><stop offset="0.73" stop-color="#9d39a8"/><stop offset="0.88" stop-color="#9429a0"/><stop offset="1" stop-color="#91249d"/></radialGradient><radialGradient id="Безымянный_градиент_146" cx="346.4" cy="474.73" r="394.01" gradientUnits="userSpaceOnUse"><stop offset="0" stop-color="#4959ff"/><stop offset="0.23" stop-color="#4757fc"/><stop offset="0.42" stop-color="#424ff1"/><stop offset="0.6" stop-color="#3843e0"/><stop offset="0.77" stop-color="#2b32c7"/><stop offset="0.79" stop-color="#2930c4"/><stop offset="0.82" stop-color="#3631c1"/><stop offset="0.89" stop-color="#5a34ba"/><stop offset="0.98" stop-color="#9338ae"/><stop offset="0.98" stop-color="#9538ae"/></radialGradient><linearGradient id="Безымянный_градиент_150" x1="191.15" y1="457.18" x2="705.12" y2="457.18" gradientTransform="translate(-41.71) scale(1.21 1)" gradientUnits="userSpaceOnUse"><stop offset="0" stop-color="#82c8ff"/><stop offset="0.34" stop-color="#9aadff"/><stop offset="0.76" stop-color="#b293ff"/><stop offset="1" stop-color="#bb89ff"/></linearGradient><radialGradient id="Безымянный_градиент_238" cx="448.14" cy="464.26" r="181.78" gradientTransform="translate(-41.71) scale(1.21 1)" gradientUnits="userSpaceOnUse"><stop offset="0" stop-color="#ff9f7f"/><stop offset="0.04" stop-color="#f09678"/><stop offset="0.25" stop-color="#a86954"/><stop offset="0.44" stop-color="#6c4436"/><stop offset="0.62" stop-color="#3e261f"/><stop offset="0.77" stop-color="#1c110e"/><stop offset="0.9" stop-color="#070504"/><stop offset="0.99"/></radialGradient><radialGradient id="Безымянный_градиент_146-2" cx="396.97" cy="441.1" r="360.29" xlink:href="#Безымянный_градиент_146"/><linearGradient id="Безымянный_градиент_150-2" x1="259.5" y1="400.82" x2="748.31" y2="400.82" gradientTransform="translate(-28.19) scale(1.06 1)" xlink:href="#Безымянный_градиент_150"/><radialGradient id="Безымянный_градиент_238-2" cx="503.91" cy="404.35" r="172.89" gradientTransform="translate(-28.19) scale(1.06 1)" xlink:href="#Безымянный_градиент_238"/><radialGradient id="Безымянный_градиент_643" cx="300.1" cy="46.56" r="7.17" gradientUnits="userSpaceOnUse"><stop offset="0" stop-color="#fff"/><stop offset="0.21" stop-color="#f2f3ff"/><stop offset="0.7" stop-color="#d8daff"/><stop offset="1" stop-color="#ced1ff"/></radialGradient><radialGradient id="Безымянный_градиент_647" cx="464.88" cy="437.25" r="4.52" gradientUnits="userSpaceOnUse"><stop offset="0.59" stop-color="#fffbff"/><stop offset="0.99" stop-color="#e3f2ff"/></radialGradient><radialGradient id="Безымянный_градиент_643-2" cx="367.6" cy="46.56" r="7.17" xlink:href="#Безымянный_градиент_643"/><radialGradient id="Безымянный_градиент_647-2" cx="532.38" cy="437.25" r="4.52" xlink:href="#Безымянный_градиент_647"/><radialGradient id="Безымянный_градиент_643-3" cx="408.05" cy="435.21" r="7.17" xlink:href="#Безымянный_градиент_643"/><radialGradient id="Безымянный_градиент_647-3" cx="408.05" cy="435.21" r="4.52" xlink:href="#Безымянный_градиент_647"/><radialGradient id="Безымянный_градиент_643-4" cx="352.2" cy="432.74" r="6.66" xlink:href="#Безымянный_градиент_643"/><radialGradient id="Безымянный_градиент_647-4" cx="361.93" cy="432.74" r="4.52" gradientTransform="translate(43.87) scale(0.85 1)" xlink:href="#Безымянный_градиент_647"/><radialGradient id="Безымянный_градиент_643-5" cx="313.44" cy="428.04" r="5.94" xlink:href="#Безымянный_градиент_643"/><radialGradient id="Безымянный_градиент_647-5" cx="351.13" cy="428.04" r="4.52" gradientTransform="translate(99.85) scale(0.61 1)" xlink:href="#Безымянный_градиент_647"/><radialGradient id="Безымянный_градиент_643-6" cx="278.15" cy="425.38" r="5.64" xlink:href="#Безымянный_градиент_643"/><radialGradient id="Безымянный_градиент_647-6" cx="330.07" cy="425.38" r="4.52" gradientTransform="translate(118.13) scale(0.48 1)" xlink:href="#Безымянный_градиент_647"/><radialGradient id="Безымянный_градиент_643-7" cx="244.65" cy="413.97" r="5.34" gradientTransform="translate(44.73 -12.03) rotate(5.51)" xlink:href="#Безымянный_градиент_643"/><radialGradient id="Безымянный_градиент_647-7" cx="356.72" cy="413.99" r="4.52" gradientTransform="matrix(0.33, 0.03, -0.1, 1, 172, 0.24)" xlink:href="#Безымянный_градиент_647"/><radialGradient id="Безымянный_градиент_643-8" cx="885.61" cy="437.25" r="7.17" gradientTransform="matrix(-1, 0, 0, 1, 1485.51, 0)" xlink:href="#Безымянный_градиент_643"/><radialGradient id="Безымянный_градиент_647-8" cx="885.61" cy="437.25" r="4.52" gradientTransform="matrix(-1, 0, 0, 1, 1485.51, 0)" xlink:href="#Безымянный_градиент_647"/><radialGradient id="Безымянный_градиент_643-9" cx="829.77" cy="433.28" r="6.66" gradientTransform="matrix(-1, 0, 0, 1, 1485.51, 0)" xlink:href="#Безымянный_градиент_643"/><radialGradient id="Безымянный_градиент_647-9" cx="922.52" cy="433.28" r="4.52" gradientTransform="matrix(-0.85, 0, 0, 1, 1441.63, 0)" xlink:href="#Безымянный_градиент_647"/><radialGradient id="Безымянный_градиент_643-10" cx="791.01" cy="429.89" r="5.94" gradientTransform="matrix(-1, 0, 0, 1, 1485.51, 0)" xlink:href="#Безымянный_градиент_643"/><radialGradient id="Безымянный_градиент_647-10" cx="1136.21" cy="429.89" r="4.52" gradientTransform="matrix(-0.61, 0, 0, 1, 1385.65, 0)" xlink:href="#Безымянный_градиент_647"/><radialGradient id="Безымянный_градиент_643-11" cx="755.71" cy="425.38" r="5.64" gradientTransform="matrix(-1, 0, 0, 1, 1485.51, 0)" xlink:href="#Безымянный_градиент_643"/><radialGradient id="Безымянный_градиент_647-11" cx="1315.15" cy="425.38" r="4.52" gradientTransform="matrix(-0.48, 0, 0, 1, 1202.6, -390.7)" xlink:href="#Безымянный_градиент_647"/><radialGradient id="Безымянный_градиент_643-12" cx="722.41" cy="414.78" r="5.34" gradientTransform="matrix(-0.99, 0.1, 0.1, 0.99, 1436.18, -62.25)" xlink:href="#Безымянный_градиент_643"/><radialGradient id="Безымянный_градиент_647-12" cx="1814.38" cy="415.21" r="4.52" gradientTransform="matrix(-0.33, 0.03, 0.1, 0.99, 1308.54, -49.63)" xlink:href="#Безымянный_градиент_647"/><radialGradient id="Безымянный_градиент_401" cx="238.66" cy="44.15" r="22.77" gradientUnits="userSpaceOnUse"><stop offset="0" stop-color="#0079ff"/><stop offset="0.04" stop-color="#0072f0"/><stop offset="0.25" stop-color="#0050a8"/><stop offset="0.44" stop-color="#00336c"/><stop offset="0.62" stop-color="#001d3e"/><stop offset="0.77" stop-color="#000d1c"/><stop offset="0.9" stop-color="#000407"/><stop offset="0.99"/></radialGradient><radialGradient id="Безымянный_градиент_468" cx="501.09" cy="-104.21" r="82.58" gradientTransform="translate(-852.17 21.05) scale(2.34 0.11)" gradientUnits="userSpaceOnUse"><stop offset="0" stop-color="#c9ffff"/><stop offset="0.21" stop-color="#c7fcfc"/><stop offset="0.35" stop-color="#c0f4f4"/><stop offset="0.46" stop-color="#b5e5e5"/><stop offset="0.56" stop-color="#a4d1d1"/><stop offset="0.65" stop-color="#8fb6b6"/><stop offset="0.74" stop-color="#769595"/><stop offset="0.82" stop-color="#576e6e"/><stop offset="0.89" stop-color="#334141"/><stop offset="0.97" stop-color="#0c0f0f"/><stop offset="0.99"/></radialGradient></defs><g class="cls-2"><g id="objects"><g class="cls-3"><path class="cls-4" d="M842.89,466.22s-151.8,18.67-339,18.67-339.06-18.67-339.06-18.67,151.8-9,339.06-9S842.89,466.22,842.89,466.22Z" transform="translate(-164.78 -390.7)"/><path class="cls-5" d="M189.79,457.18l-2,8.54s94,17.47,313.27,17.47,311.23-17.47,311.23-17.47v-8.54S498.29,467.54,189.79,457.18Z" transform="translate(-164.78 -390.7)"/><path class="cls-6" d="M812.25,457.18s-139.34,14-311.23,14-311.23-14-311.23-14,139.34-14,311.23-14S812.25,457.18,812.25,457.18Z" transform="translate(-164.78 -390.7)"/><path class="cls-7" d="M189.79,457.18s316.68,31.84,622.46,0C812.25,457.18,507.36,484.13,189.79,457.18Z" transform="translate(-164.78 -390.7)"/><path class="cls-8" d="M245.79,397.62v57.57s76.27,13.48,258,13.48,258-14,258-14v-57S501.57,407.47,245.79,397.62Z" transform="translate(-164.78 -390.7)"/><path class="cls-9" d="M761.88,397.62s-115.53,13.32-258,13.32-258-13.32-258-13.32,115.53-6.92,258-6.92S761.88,397.62,761.88,397.62Z" transform="translate(-164.78 -390.7)"/><path class="cls-10" d="M245.79,397.62s262.56,30.28,516.09,0C761.88,397.62,510.94,424.25,245.79,397.62Z" transform="translate(-164.78 -390.7)"/><circle class="cls-11" cx="300.1" cy="46.56" r="7.17"/><path class="cls-12" d="M469.4,437.25a4.52,4.52,0,1,1-4.52-4.51A4.52,4.52,0,0,1,469.4,437.25Z" transform="translate(-164.78 -390.7)"/><circle class="cls-13" cx="367.6" cy="46.56" r="7.17"/><path class="cls-14" d="M536.9,437.25a4.52,4.52,0,1,1-4.52-4.51A4.52,4.52,0,0,1,536.9,437.25Z" transform="translate(-164.78 -390.7)"/><path class="cls-15" d="M415.22,435.21a7.17,7.17,0,1,1-7.17-7.17A7.17,7.17,0,0,1,415.22,435.21Z" transform="translate(-164.78 -390.7)"/><path class="cls-16" d="M412.56,435.21a4.52,4.52,0,1,1-4.51-4.51A4.51,4.51,0,0,1,412.56,435.21Z" transform="translate(-164.78 -390.7)"/><path class="cls-17" d="M358.31,432.74c0,4-2.73,7.17-6.11,7.17s-6.11-3.21-6.11-7.17,2.74-7.17,6.11-7.17S358.31,428.78,358.31,432.74Z" transform="translate(-164.78 -390.7)"/><path class="cls-18" d="M356.05,432.74c0,2.49-1.72,4.51-3.85,4.51s-3.85-2-3.85-4.51,1.73-4.52,3.85-4.52S356.05,430.24,356.05,432.74Z" transform="translate(-164.78 -390.7)"/><path class="cls-19" d="M317.81,428c0,4-2,7.17-4.37,7.17s-4.36-3.21-4.36-7.17,1.95-7.17,4.36-7.17S317.81,424.08,317.81,428Z" transform="translate(-164.78 -390.7)"/><path class="cls-20" d="M316.19,428c0,2.5-1.23,4.52-2.75,4.52s-2.74-2-2.74-4.52,1.23-4.52,2.74-4.52S316.19,425.55,316.19,428Z" transform="translate(-164.78 -390.7)"/><path class="cls-21" d="M281.63,425.38c0,4-1.56,7.17-3.48,7.17s-3.48-3.21-3.48-7.17,1.56-7.18,3.48-7.18S281.63,421.41,281.63,425.38Z" transform="translate(-164.78 -390.7)"/><path class="cls-22" d="M280.34,425.38c0,2.49-1,4.51-2.19,4.51s-2.19-2-2.19-4.51,1-4.52,2.19-4.52S280.34,422.88,280.34,425.38Z" transform="translate(-164.78 -390.7)"/><path class="cls-23" d="M250.85,423.75c-.38,3.94-1.74,7-3,6.91s-2-3.42-1.65-7.36,1.74-7,3-6.91S251.23,419.81,250.85,423.75Z" transform="translate(-164.78 -390.7)"/><path class="cls-24" d="M250,423.67c-.24,2.48-1.09,4.43-1.9,4.35s-1.28-2.15-1-4.64,1.09-4.43,1.9-4.35S250.22,421.18,250,423.67Z" transform="translate(-164.78 -390.7)"/><path class="cls-25" d="M592.72,437.25a7.17,7.17,0,1,0,7.17-7.17A7.17,7.17,0,0,0,592.72,437.25Z" transform="translate(-164.78 -390.7)"/><path class="cls-26" d="M595.38,437.25a4.52,4.52,0,1,0,4.51-4.51A4.51,4.51,0,0,0,595.38,437.25Z" transform="translate(-164.78 -390.7)"/><path class="cls-27" d="M649.63,433.28c0,4,2.73,7.17,6.11,7.17s6.11-3.21,6.11-7.17-2.74-7.17-6.11-7.17S649.63,429.32,649.63,433.28Z" transform="translate(-164.78 -390.7)"/><path class="cls-28" d="M651.89,433.28c0,2.49,1.72,4.52,3.85,4.52s3.85-2,3.85-4.52-1.73-4.52-3.85-4.52S651.89,430.79,651.89,433.28Z" transform="translate(-164.78 -390.7)"/><path class="cls-29" d="M690.13,429.89c0,4,2,7.17,4.37,7.17s4.36-3.21,4.36-7.17-2-7.17-4.36-7.17S690.13,425.93,690.13,429.89Z" transform="translate(-164.78 -390.7)"/><path class="cls-30" d="M691.75,429.89c0,2.5,1.23,4.52,2.75,4.52s2.74-2,2.74-4.52-1.23-4.51-2.74-4.51S691.75,427.4,691.75,429.89Z" transform="translate(-164.78 -390.7)"/><path class="cls-31" d="M726.31,425.38c0,4,1.56,7.17,3.48,7.17s3.48-3.21,3.48-7.17-1.56-7.18-3.48-7.18S726.31,421.41,726.31,425.38Z" transform="translate(-164.78 -390.7)"/><ellipse class="cls-32" cx="565.01" cy="34.68" rx="2.19" ry="4.52"/><path class="cls-33" d="M757.1,423.76c.4,3.94,1.77,7,3.06,6.9s2-3.43,1.61-7.37-1.77-7-3.06-6.9S756.69,419.82,757.1,423.76Z" transform="translate(-164.78 -390.7)"/><path class="cls-34" d="M758,423.67c.25,2.49,1.12,4.43,1.93,4.35s1.27-2.16,1-4.65S759.79,419,759,419,757.71,421.19,758,423.67Z" transform="translate(-164.78 -390.7)"/><circle class="cls-35" cx="238.66" cy="44.15" r="22.77"/><ellipse class="cls-36" cx="318.92" cy="9.86" rx="193.03" ry="8.87"/></g></g></g></svg>